<svg width="111" height="110" fill="none" xmlns="http://www.w3.org/2000/svg"><mask id="a" fill="#fff"><path fill-rule="evenodd" clip-rule="evenodd" d="M32.406 4.054c-2.284 2.23-4.304 4.214-4.488 4.41-.302.323.1.78 4.154 4.734l4.488 4.377.061-2.622.06-2.622h37.234l.06 2.668.061 2.669 4.415-4.297c2.428-2.363 4.434-4.418 4.456-4.566.04-.257-8.288-8.464-8.757-8.63-.144-.052-.222.86-.222 2.586v2.666H36.681l-.06-2.713L36.56 0l-4.155 4.054zm-2.2 24.746v4.963l-.914-.133-4.9-.714c-6.634-.965-15.626-2.743-22.022-4.353l-2.1-.529v38.638c0 31.654.051 38.637.282 38.637.155 0 1.73-.354 3.5-.788 6.91-1.69 15.347-3.301 22.347-4.266 1.874-.258 3.495-.47 3.603-.47.11 0 .222 2.149.255 4.891l.058 4.891h50.181l.058-4.891c.047-3.946.115-4.89.352-4.89.594 0 7.027.957 10.897 1.622 4.52.776 8.928 1.689 14.483 2.999 2.102.496 3.919.902 4.038.902.144 0 .217-12.888.217-38.637V28.034l-2.208.559c-6.396 1.616-16.328 3.563-22.668 4.44-1.895.264-3.81.538-4.254.61l-.807.132v-9.937H30.207V28.8zm43.937 31.056v29.113H36.668V30.743h37.475v29.113zM9.657 37.29c5.42 1.178 18.634 3.348 20.382 3.348.092 0 .168 11.742.168 26.094v26.095l-1.454.154c-4.41.468-16.986 2.628-20.73 3.56-.532.132-1.041.243-1.13.246-.089.003-.162-13.51-.162-30.028s.073-30.034.162-30.034c.09 0 1.333.255 2.764.565zm94.422 29.484c0 28.511-.019 30.044-.377 29.929-1.879-.603-17.49-3.295-21.644-3.733l-1.454-.153v-26.09c0-21.483.05-26.09.285-26.09 1.604 0 15.124-2.225 20.175-3.321 1.362-.296 2.598-.55 2.746-.564.214-.021.269 6.123.269 30.022zM41.406 45.587v5.638h6.461v-4.372h4.093v-6.905H41.405v5.639zM58.851 43.4v3.452h4.092v4.372h6.461V39.948H58.852v3.453zM41.406 74.24v5.523h10.565l-.06-3.395-.06-3.394-1.991-.066-1.993-.066v-4.126h-6.46v5.524zm21.537-3.461v2.063l-1.992.066-1.992.066-.06 3.394-.06 3.395h10.566V68.716h-6.461v2.063zm11.092 28.546v3.337h-37.26l-.06-3.095c-.033-1.702-.011-3.23.048-3.396.088-.245 3.559-.29 18.69-.242l18.582.06v3.336z"/></mask><path fill-rule="evenodd" clip-rule="evenodd" d="M32.406 4.054c-2.284 2.23-4.304 4.214-4.488 4.41-.302.323.1.78 4.154 4.734l4.488 4.377.061-2.622.06-2.622h37.234l.06 2.668.061 2.669 4.415-4.297c2.428-2.363 4.434-4.418 4.456-4.566.04-.257-8.288-8.464-8.757-8.63-.144-.052-.222.86-.222 2.586v2.666H36.681l-.06-2.713L36.56 0l-4.155 4.054zm-2.2 24.746v4.963l-.914-.133-4.9-.714c-6.634-.965-15.626-2.743-22.022-4.353l-2.1-.529v38.638c0 31.654.051 38.637.282 38.637.155 0 1.73-.354 3.5-.788 6.91-1.69 15.347-3.301 22.347-4.266 1.874-.258 3.495-.47 3.603-.47.11 0 .222 2.149.255 4.891l.058 4.891h50.181l.058-4.891c.047-3.946.115-4.89.352-4.89.594 0 7.027.957 10.897 1.622 4.52.776 8.928 1.689 14.483 2.999 2.102.496 3.919.902 4.038.902.144 0 .217-12.888.217-38.637V28.034l-2.208.559c-6.396 1.616-16.328 3.563-22.668 4.44-1.895.264-3.81.538-4.254.61l-.807.132v-9.937H30.207V28.8zm43.937 31.056v29.113H36.668V30.743h37.475v29.113zM9.657 37.29c5.42 1.178 18.634 3.348 20.382 3.348.092 0 .168 11.742.168 26.094v26.095l-1.454.154c-4.41.468-16.986 2.628-20.73 3.56-.532.132-1.041.243-1.13.246-.089.003-.162-13.51-.162-30.028s.073-30.034.162-30.034c.09 0 1.333.255 2.764.565zm94.422 29.484c0 28.511-.019 30.044-.377 29.929-1.879-.603-17.49-3.295-21.644-3.733l-1.454-.153v-26.09c0-21.483.05-26.09.285-26.09 1.604 0 15.124-2.225 20.175-3.321 1.362-.296 2.598-.55 2.746-.564.214-.021.269 6.123.269 30.022zM41.406 45.587v5.638h6.461v-4.372h4.093v-6.905H41.405v5.639zM58.851 43.4v3.452h4.092v4.372h6.461V39.948H58.852v3.453zM41.406 74.24v5.523h10.565l-.06-3.395-.06-3.394-1.991-.066-1.993-.066v-4.126h-6.46v5.524zm21.537-3.461v2.063l-1.992.066-1.992.066-.06 3.394-.06 3.395h10.566V68.716h-6.461v2.063zm11.092 28.546v3.337h-37.26l-.06-3.095c-.033-1.702-.011-3.23.048-3.396.088-.245 3.559-.29 18.69-.242l18.582.06v3.336z" fill="#87121D" stroke="#fff" stroke-width="4" mask="url(#a)"/></svg>