<svg width="71" height="102" fill="none" xmlns="http://www.w3.org/2000/svg"><path fill-rule="evenodd" clip-rule="evenodd" d="M.214.963c-.433.659-.2 1.265.618 1.606.987.411 1.81.358 2.075-.135.369-.688.076-1.286-.804-1.637C1.008.36.585.397.213.963zM4.33 2.08c-.411.42-.298 1.316.209 1.647.66.431 1.608.574 2.092.316.605-.323.567-1.29-.067-1.704-.663-.433-1.92-.579-2.234-.26zm3.92 1.446c-.13.156-.207.531-.172.833.051.446.239.622.998.934 1.27.524 1.934.257 1.934-.774 0-.618-.084-.74-.686-.991-.876-.365-1.771-.366-2.074-.002zm4.195 1.2c-.901.636-.441 1.6.98 2.055 1.188.38 2.064-.397 1.542-1.37-.39-.726-1.887-1.133-2.522-.685zm3.797 1.565c-.433.66-.2 1.266.618 1.606 1.062.443 1.836.364 2.1-.215.339-.74-.029-1.357-.977-1.64-1.12-.335-1.383-.297-1.741.249zM30.5 6.272c-.327.145-.716.41-.865.59-.222.267-.663.327-2.411.327-2.488 0-3.008.15-3.559 1.03-.356.57-.397.913-.346 2.884l.058 2.237.646.575c.631.562.697.576 2.833.576 2.17 0 2.192.004 2.94.63l.753.63-.345 1.196c-.976 3.394-2.923 7.41-5.554 11.461-1.307 2.012-1.467 2.732-.686 3.087.658.3 2.375-.052 4.028-.823 1.827-.853 3.282-2.417 4.42-4.752 1.358-2.782 2.343-3.544 4.924-3.81l1.098-.114.534 1.087c.294.597.535 1.117.535 1.155 0 .039-.436.111-.969.163-.552.052-1.362.322-1.884.628-1.834 1.072-2.409 2.78-2.236 6.649.131 2.946.614 3.931 2.557 5.211.264.175.234.667-.261 4.243-.309 2.226-.71 4.446-.892 4.934-.586 1.576-1.498 2.682-4.725 5.735-1.74 1.647-3.512 3.45-3.937 4.008-.868 1.14-1.736 2.941-2.057 4.269-.118.488-.897 6.483-1.73 13.32-1.17 9.603-1.494 12.801-1.42 14.047.078 1.318.34 2.333 1.426 5.526.732 2.152 1.56 4.337 1.84 4.857.659 1.225 1.961 2.41 3.37 3.069l1.123.525 16.304.055c18.144.061 17.525.101 19.548-1.268 1.8-1.218 2.183-1.888 3.925-6.889 1.992-5.715 1.98-4.665.205-19.23-1.675-13.746-1.691-13.855-2.286-15.44-.726-1.933-1.87-3.357-5.437-6.758-3.556-3.392-4.392-4.433-4.918-6.122-.23-.743-1.324-7.858-1.322-8.608 0-.067.352-.353.78-.637.43-.283 1.031-.939 1.336-1.457.532-.9.558-1.07.622-3.924.061-2.731.03-3.068-.374-4.005-.72-1.67-2.369-2.781-4.127-2.781-.619 0-.627-.012-.496-.74.464-2.585 1.985-3.896 4.852-4.184 1.776-.179 2.663-.69 3.216-1.854.542-1.138.416-2.091-.515-3.913-1.45-2.84-4.35-5.412-7.47-6.626-2.363-.92-2.256-.911-12.564-.973-7.94-.048-10.011-.008-10.487.204zm20.747 2.213c2.203.56 4.04 1.609 5.671 3.237 1.82 1.817 3.083 4.01 2.775 4.818-.204.536-.437.622-2.207.813-1.536.165-3.266 1.032-4.3 2.155-.979 1.064-1.476 2.085-1.808 3.719l-.231 1.138-4.586-.053-4.585-.053-1.583-3.102c-.87-1.705-1.847-3.448-2.17-3.871-1.16-1.521-2.57-2.31-5.943-3.326l-1.187-.358-.055-2.456c-.031-1.35-.012-2.571.043-2.713.16-.417 18.507-.37 20.166.052zm-22.43 2.453v1.58h-.763c-.42 0-1.177-.057-1.682-.126l-.918-.126V9.36h3.364v1.578zm-27.191-.874c-.441.44-.4 1.405.072 1.657.58.31 1.92.248 2.274-.106a1.022 1.022 0 00-.129-1.553c-.568-.397-1.818-.396-2.217.002zm4.284-.002c-.987.689-.289 1.863 1.11 1.863.863 0 1.616-.506 1.616-1.085 0-.932-1.78-1.44-2.726-.778zm4.111.087c-.824.822-.15 1.776 1.255 1.776.948 0 1.515-.426 1.515-1.14 0-.962-1.986-1.418-2.77-.636zm4.285-.034c-.45.495-.42 1.352.055 1.606.492.263 1.71.263 2.203 0 .47-.252.512-1.217.071-1.657-.443-.442-1.911-.41-2.33.051zm4.267-.053c-.533.372-.57 1.092-.078 1.536.51.46 2.048.439 2.477-.034 1.056-1.164-1.02-2.466-2.399-1.502zm.803 2.914c-1 .364-1.357.817-1.134 1.44.251.701.826.88 1.777.554 1.256-.43 1.598-1.15.884-1.86-.446-.446-.625-.462-1.527-.134zm-4.112 1.36c-.869.304-1.088.534-1.088 1.141 0 .778.438 1.06 1.436.926.958-.128 1.796-.902 1.593-1.471-.31-.867-.769-1.008-1.94-.597zm-4.254 1.487c-.543.27-.706.48-.753.973-.075.765.488 1.152 1.41.968.973-.194 1.52-.65 1.52-1.265 0-1.047-.882-1.321-2.177-.676zm23.744 1.25c.38.203.873.526 1.093.719.546.476 1.479 1.721 1.479 1.973 0 .113-.473.265-1.05.337-1.384.172-2.827.866-3.768 1.812-.42.422-1.166 1.566-1.658 2.543-.492.976-1.146 2.093-1.453 2.482-.548.693-2.097 1.895-2.244 1.74-.041-.043.325-.744.814-1.558 1.53-2.547 3.194-6.125 3.957-8.508l.734-2.292.702.192a8.248 8.248 0 011.394.56zM7.297 16.99c-1.288.455-1.6 1.528-.598 2.062.483.258 1.729-.042 2.224-.535a1.021 1.021 0 00-.134-1.548c-.512-.358-.414-.36-1.492.021zm-3.949 1.315c-.938.341-1.318.794-1.167 1.393.07.277.291.592.492.7.756.402 2.598-.498 2.598-1.27 0-.366-.703-1.09-1.039-1.07-.135.008-.533.119-.884.247zm52.3 8.895l.672.67v2.793c0 2.11-.074 2.934-.3 3.372-.606 1.169-.676 1.177-9.534 1.176-7.748 0-8.099-.017-8.728-.399-.971-.59-1.224-1.406-1.224-3.942 0-2.427.224-3.234 1.09-3.913.54-.424.629-.428 8.948-.428h8.402l.673.67zM54.12 40.886c.898 7.041.939 7.121 6.274 12.383 4.133 4.077 4.828 4.994 5.395 7.11.116.431.888 6.335 1.716 13.119 1.125 9.21 1.482 12.708 1.41 13.814-.073 1.114-.389 2.334-1.275 4.934-.648 1.899-1.314 3.773-1.48 4.165-.377.894-1.436 1.961-2.44 2.458-.742.367-1.407.385-16.8.44-17.228.06-17.064.069-18.496-.966-1.101-.795-1.587-1.764-3.054-6.093-1.154-3.405-1.303-4.015-1.303-5.348 0-2.358 2.9-25.714 3.368-27.124.614-1.852 1.49-2.947 5.14-6.43 3.638-3.47 4.678-4.787 5.32-6.736.327-.996 1.408-7.869 1.408-8.956 0-.228 1.197-.273 7.185-.273h7.184l.448 3.503zM35.864 66.88c-.423.15-1.115.611-1.54 1.024-1.297 1.264-1.352 1.674-1.352 10.179 0 4.733.079 7.787.215 8.327.27 1.07 1.161 2.163 2.228 2.732.819.437.86.438 11.11.438h10.29l.881-.493c.485-.271 1.153-.878 1.484-1.349l.602-.856.057-8.42c.064-9.501.058-9.546-1.37-10.765-.433-.37-1.178-.77-1.655-.89-1.378-.346-19.954-.282-20.95.073zm20.877 2.19c1.12.576 1.162.909 1.162 9.064s-.043 8.488-1.162 9.065c-.887.457-19.526.466-20.412.01-1.19-.614-1.2-.687-1.138-9.39l.056-7.908.647-.575.646-.576h9.8c8.51 0 9.88.04 10.4.31zm-18.222 3.624c-.296.552-.253.895.157 1.265.323.292 1.162.327 7.875.327 5.58 0 7.574-.061 7.75-.237.131-.13.238-.468.238-.75s-.107-.62-.237-.75c-.177-.176-2.206-.237-7.908-.237-7.38 0-7.678.015-7.875.382zm.191 4.75c-.218.217-.396.527-.396.69 0 .163.178.474.396.69.37.37.66.395 4.507.395 3.4 0 4.187-.053 4.55-.307.534-.372.57-1.093.079-1.537-.313-.282-.931-.326-4.551-.326-3.925 0-4.214.025-4.585.394zm11.664.01c-.28.279-.366.539-.277.838.222.745.671.927 2.29.927 1.722 0 2.152-.237 2.152-1.19 0-.779-.465-.98-2.262-.98-1.246 0-1.565.068-1.903.404zm-11.732 4.89c-.411.452-.417.902-.017 1.302.383.381 2.846.437 3.211.073.333-.332.296-1.058-.073-1.427-.468-.466-2.685-.43-3.121.051zm5.306.039c-.288.317-.324.512-.174.937l.189.537 5.016.053c5.378.056 5.56.026 5.56-.925 0-.98-.125-1.003-5.351-1.003-4.65 0-4.894.02-5.24.401z" fill="#fff"/></svg>