<svg width="95" height="95" fill="none" xmlns="http://www.w3.org/2000/svg"><path fill-rule="evenodd" clip-rule="evenodd" d="M37.633.392c-1.23.7-1.64 2.359-.882 3.567.925 1.475 2.6 1.694 3.737.487.784-.832.96-1.805.505-2.789C40.325.207 38.9-.329 37.633.392zm19.7 2.318c-.622.128-1.463 1.071-1.673 1.878-.578 2.222 1.734 4.072 3.588 2.871 1.788-1.158 1.37-4.09-.67-4.691-.36-.106-.695-.182-.745-.168-.051.015-.275.064-.5.11zm25.186 9.824c-1.93 1.313-.992 4.674 1.304 4.674 2.403 0 3.363-3.073 1.457-4.666-.647-.54-1.972-.544-2.76-.008zm-56.24 3.988c-.897.414-1.373 1.356-1.277 2.528.065.8.188 1.071.73 1.598.852.83 1.735 1.008 2.637.532.963-.508 1.413-1.238 1.413-2.29 0-1.973-1.769-3.169-3.503-2.368zm19.794 2.324c-1.574.468-2.662 1.168-3.96 2.547-1.753 1.86-2.647 3.976-2.652 6.27-.003 1.18.503 1.84 1.413 1.84.951 0 1.334-.51 1.538-2.05.224-1.682.748-2.867 1.727-3.908 1.056-1.121 2.316-1.724 3.795-1.815 2.478-.152 4.479 1.01 5.658 3.284.61 1.175.658 1.391.658 2.927 0 1.385-.08 1.836-.48 2.732-.611 1.365-1.634 2.452-2.92 3.1l-1.01.51-17.363.098c-9.55.053-17.51.173-17.69.267-.787.407-.91 1.658-.233 2.376l.45.48h17.242c18.819 0 18.297.028 20.336-1.128 1.197-.678 3-2.593 3.638-3.864 2.7-5.371-.066-12.096-5.62-13.666-1.163-.329-3.42-.329-4.527 0zm22.851 3.018c-.863.576-1.17 1.164-1.17 2.24 0 .85.08 1.04.714 1.714.626.665.818.757 1.579.757 1.558 0 2.484-.977 2.484-2.618 0-.747-.103-1.02-.608-1.605-.508-.589-.758-.72-1.516-.789-.684-.063-1.049.011-1.483.301zm12.626 11.07c-3.906 1.116-6.669 5.176-6.462 9.496.027.583.698 1.123 1.394 1.123.59 0 1.376-.528 1.38-.927.008-.884.487-2.868.875-3.625 2.303-4.494 8.492-4.245 10.65.43.427.926.505 1.34.498 2.658-.006 1.294-.094 1.752-.513 2.674-.633 1.392-2.01 2.734-3.352 3.267-1.006.4-1.094.401-42.722.401-31.36 0-41.813.056-42.115.227-.958.542-1.143 1.637-.41 2.416l.452.48h41.953c37.1 0 42.08-.035 43.036-.3 2.835-.784 5.05-2.955 6.164-6.043.605-1.673.615-4.366.025-6.196-.713-2.208-2.27-4.152-4.24-5.29-1.842-1.065-4.528-1.386-6.613-.79zM68.912 59.937c-1.493.966-1.553 3.4-.11 4.406 1.103.77 2.873.307 3.463-.905 1.129-2.318-1.286-4.84-3.353-3.501zM14.905 62.71c-.79.405-1.018 1.59-.45 2.335l.35.46 17.426.1c16.338.092 17.48.12 18.297.457 1.215.499 2.59 1.876 3.207 3.21.441.953.515 1.35.515 2.771 0 1.419-.074 1.819-.511 2.763-1.447 3.13-5.019 4.439-7.941 2.91-1.934-1.01-3.4-3.254-3.4-5.202 0-.8-.41-1.737-.835-1.91-1.147-.468-2.104.341-2.104 1.78 0 4.335 3.427 8.38 7.635 9.014 6.358.956 11.567-5.346 9.851-11.92-.878-3.363-3.386-5.876-6.69-6.703-.972-.243-3.768-.286-18.054-.278-11.247.007-17.035.078-17.296.212zm76.076 1.6c-1.817.87-1.97 3.363-.278 4.56 2.041 1.444 4.61-1.178 3.334-3.402-.678-1.181-1.978-1.674-3.056-1.157zm-19.538 7.688c-1.234.723-1.641 2.37-.884 3.578.874 1.395 2.46 1.675 3.618.64 2.182-1.95-.236-5.682-2.734-4.218zm13.286 7.126c-1.661 1.617-.574 4.43 1.714 4.432 1.415.001 2.646-1.684 2.264-3.098-.383-1.417-1.084-1.975-2.48-1.975-.692 0-.955.112-1.498.64zm-53.667 3.449c-1.102.713-1.494 2.368-.84 3.543.307.552 1.545 1.348 2.083 1.339.145-.002.61-.171 1.032-.375.917-.442 1.345-1.21 1.345-2.414 0-1.93-2.045-3.113-3.62-2.093zm38.064 6.252c-1.318.693-1.771 2.327-1.011 3.65 1.235 2.151 4.416 1.254 4.416-1.246 0-1.205-.427-1.973-1.344-2.415-.97-.467-1.153-.467-2.06.01zm-19.837.884c-1.276.472-1.905 1.709-1.554 3.056.557 2.144 3.306 2.57 4.42.685.502-.848.395-2.29-.221-2.99-.804-.912-1.599-1.138-2.645-.75z" fill="#fff"/></svg>