<svg width="52" height="83" fill="none" xmlns="http://www.w3.org/2000/svg"><path fill-rule="evenodd" clip-rule="evenodd" d="M21.248.18c-.639.37-.714.641-.719 2.609-.005 1.817.015 1.932.39 2.31.264.265.572.396.926.393 1.12-.011 1.416-.605 1.416-2.834 0-1.691-.01-1.735-.47-2.2-.495-.497-1.003-.59-1.543-.278zm7.062 1.75C27.66 2.194 26 4.92 26 5.724c0 .915 1.218 1.542 2.087 1.074.286-.154 1.626-2.342 1.934-3.157.237-.627-.1-1.378-.738-1.646-.295-.125-.557-.221-.582-.216-.025.006-.2.074-.39.15zm-14.027.11c-.33.133-.715 1.03-.615 1.431.152.609 1.699 3.147 2.025 3.323.342.184.974.213 1.363.063.399-.154.774-1.007.654-1.488-.125-.5-1.297-2.56-1.75-3.073-.31-.353-1.13-.478-1.677-.257zM9.005 7.353c-.503.506-.516 1.234-.033 1.768.582.644 2.862 1.888 3.458 1.888.954 0 1.611-1.105 1.15-1.933-.127-.228-.88-.798-1.675-1.266-1.66-.978-2.284-1.077-2.9-.457zm23.03.338c-1.51.86-2.012 1.367-2.012 2.037 0 .668.634 1.282 1.321 1.279.678-.003 3.328-1.541 3.65-2.119.46-.826-.197-1.934-1.147-1.932-.322.001-1.02.284-1.811.735zM19.8 10.116c-.7.286-1.216.66-1.87 1.355-1.636 1.737-1.5.002-1.592 20.275l-.08 17.736-3.294-2.783c-1.839-1.554-3.688-2.978-4.186-3.225-.8-.396-1.069-.441-2.587-.441-1.584 0-1.762.033-2.754.525-1.276.633-2.407 1.793-3.01 3.087-.379.816-.43 1.123-.426 2.549.009 2.759-.438 2.186 9.74 12.485l8.813 8.917.726 1.54c.941 1.998 1.095 2.681 1.236 5.513.065 1.293.202 2.557.305 2.808.357.875 1.028 1.564 1.998 2.052l.976.491 10.32-.001c6.61 0 10.533-.061 10.918-.169.915-.256 1.922-1.12 2.447-2.098l.47-.88.118-3.898c.139-4.584.368-5.715 1.79-8.83.84-1.84 1.48-3.704 1.841-5.364.272-1.244.301-2.172.301-9.485v-8.108l-.446-.914c-.491-1.008-1.506-2.044-2.501-2.555-1.283-.66-3.531-.707-4.698-.1-.5.261-.647.188-.647-.317 0-.565-.75-1.91-1.486-2.668a6.601 6.601 0 00-1.573-1.13c-.75-.358-1.106-.422-2.334-.422-1.342 0-1.524.04-2.456.55l-1.006.549-.627-.717c-1.286-1.472-3.454-2.179-5.25-1.712-.53.138-1.092.301-1.247.362-.267.104-.282-.426-.283-9.757 0-6.003-.066-10.271-.168-10.899-.223-1.385-.772-2.418-1.762-3.314a5.397 5.397 0 00-5.716-1.007zm3.588 2.787c.24.18.6.567.799.862l.362.536v12.87c0 10.733.038 12.964.228 13.422.59 1.42 2.33 1.083 2.591-.501.159-.961.396-1.475.918-1.99.861-.847 2.338-.962 3.394-.265.81.535 1.139 1.31 1.212 2.866.056 1.186.124 1.47.41 1.737.401.374.816.46 1.428.299.511-.136.848-.72.97-1.685.21-1.66 2.035-2.745 3.61-2.146.675.256 1.482 1.114 1.662 1.766.087.316.159 1.691.16 3.055 0 2.416.01 2.49.396 2.878.91.917 2.336.204 2.344-1.172.004-.641.626-1.676 1.271-2.114.41-.277.774-.37 1.463-.37 1.109 0 1.829.42 2.37 1.383.36.64.362.69.365 7.564.001 4.055-.069 7.437-.17 8.17-.245 1.774-.834 3.705-1.743 5.713-1.611 3.559-2.073 5.735-2.221 10.464-.086 2.722-.145 3.27-.383 3.567l-.282.35-10.166.045-10.167.044-.474-.478c-.461-.464-.474-.521-.474-2.09 0-1.983-.345-4.059-.916-5.507-1.04-2.638-1.164-2.782-10.526-12.281-9.28-9.416-9.168-9.286-9.165-10.72.002-1.292.853-2.636 2-3.16.776-.355 2.144-.397 2.874-.087.285.12 2.51 1.913 4.946 3.983 2.435 2.07 4.606 3.835 4.824 3.923.494.2 1.045.07 1.459-.348.313-.315.318-.618.319-19.33 0-12.578.057-19.216.167-19.615.207-.749.867-1.557 1.514-1.853.679-.31 2.081-.195 2.631.215zm-15.825 1.05c-.822.454-1.004 1.6-.352 2.217.34.322.54.352 2.295.347 2.084-.005 2.346-.093 2.647-.889.23-.61-.053-1.31-.66-1.626-.545-.284-3.438-.32-3.93-.049zm24.719.013c-.871.46-1.026 1.529-.323 2.236.282.284.541.32 2.257.32 1.845 0 1.96-.019 2.335-.397.542-.546.533-1.36-.02-1.885-.378-.357-.569-.397-2.133-.438-1.174-.031-1.844.02-2.116.164zm-21.41 5.996c-1.89.99-2.327 1.394-2.327 2.15 0 .72.624 1.383 1.302 1.383.51 0 3.178-1.515 3.511-1.994.348-.5.3-1.168-.12-1.632-.607-.673-.926-.66-2.365.093zm19.662-.146c-.532.57-.474 1.437.13 1.949.746.632 2.816 1.73 3.261 1.73.662 0 1.25-.583 1.25-1.239 0-.868-.206-1.102-1.748-1.991-1.638-.944-2.33-1.052-2.893-.449z" fill="#000"/></svg>