<svg width="119" height="119" fill="none" xmlns="http://www.w3.org/2000/svg"><path fill-rule="evenodd" clip-rule="evenodd" d="M40.544 18.342c-.465.455-.496.609-.224 1.108.104.19 2.3 3.524 4.882 7.405l4.692 7.058-.42 3.361c-.23 1.85-.378 3.514-.328 3.699.052.193 1.474 1.388 3.34 2.806l3.25 2.47.007 2.893c.006 2.676-.015 2.888-.278 2.827-.157-.036-1.603-.205-3.214-.377a69.014 69.014 0 01-9.962-1.764c-6.729-1.688-9.459-2.132-13.142-2.14-2.414-.004-2.911.04-3.914.349-2.17.668-3.22 1.824-3.233 3.552-.014 2.05 2 3.683 6.209 5.033 6.831 2.192 16.595 2.025 23.88-.409l.976-.326-1.645 1.555-1.644 1.554-2.073 5.737c-1.14 3.155-2.193 5.924-2.341 6.153-.148.23-2.869 3.552-6.046 7.383-3.176 3.83-5.83 7.108-5.897 7.283-.232.609.532 1.372 1.174 1.172.17-.053 3.084-3.445 6.476-7.538l6.168-7.442 2.164-5.934 2.163-5.934 1.566-1.396a147.02 147.02 0 011.938-1.707l.373-.31-.155.39-1.816 4.534-1.661 4.143.095 5.067.096 5.067-4.887 9.57c-2.76 5.407-4.864 9.712-4.836 9.895.027.18.233.457.456.618.902.65.778.844 6.208-9.79l5.048-9.886-.115-5.032-.114-5.031.982-2.39.982-2.39.054 5.098c.05 4.872.069 5.128.405 5.737.416.754 1.215 1.523 2.007 1.93.407.21.92.294 1.79.294s1.383-.084 1.79-.293c.791-.408 1.59-1.177 2.007-1.931.336-.609.354-.865.405-5.737l.053-5.099.981 2.39.98 2.39-.116 5.024-.117 5.023 5.052 9.894c5.434 10.644 5.31 10.448 6.212 9.8.223-.162.428-.438.455-.615.028-.178-2.123-4.58-4.836-9.897l-4.886-9.577.096-5.065.096-5.064-1.664-4.143c-.914-2.279-1.732-4.319-1.816-4.534l-.153-.39.372.31c.205.171 1.077.94 1.938 1.707l1.566 1.397 2.164 5.933 2.164 5.934 6.165 7.442c3.39 4.092 6.311 7.486 6.49 7.542.403.125 1.059-.275 1.209-.736.138-.429.526.075-6.18-8.015-3.06-3.69-5.679-6.89-5.821-7.11-.142-.218-1.19-2.979-2.33-6.134l-2.07-5.737-1.646-1.556-1.645-1.557.976.33c1.382.469 3.912 1.06 6.124 1.431 7.308 1.228 15.911.3 20.766-2.241 1.518-.795 2.338-1.445 2.77-2.198.965-1.681.407-3.566-1.355-4.578-1.329-.762-2.337-.938-5.364-.934-3.651.005-5.569.309-12.528 1.99-4.446 1.073-7.483 1.612-11.227 1.993-1.431.145-2.658.296-2.725.336-.067.04-.118-1.241-.113-2.846l.008-2.917 3.245-2.47c1.785-1.358 3.286-2.614 3.335-2.79.05-.177-.098-1.84-.327-3.697l-.417-3.376 4.703-7.076c2.586-3.892 4.79-7.237 4.897-7.433a.938.938 0 00-1.053-1.377c-.28.069-1.665 2.031-5.384 7.62-2.754 4.14-5.037 7.678-5.073 7.86-.059.303.517 5.582.697 6.388.063.285-.366.684-2.552 2.373l-2.628 2.032-.421-.478c-.527-.598-1.284-1.107-1.855-1.248l-.438-.107v-3.887c0-3.674-.018-3.904-.325-4.205-.18-.176-.472-.319-.651-.319-.18 0-.472.143-.65.319-.309.301-.326.53-.326 4.205v3.887l-.438.107c-.571.14-1.328.65-1.855 1.248l-.422.478-2.628-2.031c-2.185-1.69-2.615-2.09-2.551-2.374.18-.806.756-6.086.697-6.388-.08-.404-10.025-15.386-10.215-15.386-.073 0-.246-.042-.384-.094-.148-.055-.42.073-.664.312zm20.845 26.41c.53.478.869 1.243.869 1.958 0 .55-.002.552-.92.664-.912.112-3.202-.005-3.487-.178-.244-.147-.169-1.067.136-1.661.156-.305.54-.724.854-.93.743-.49 1.917-.423 2.548.147zm.869 6.616v2.091l-.509.1c-.65.127-2.644.126-3.437-.003l-.61-.099v-4.18h4.555v2.09zm-30.46-1.685c2.08.221 5.7.936 9.627 1.901 3.923.965 6.75 1.502 9.59 1.823 1.2.136 2.211.277 2.248.313.037.035-.615.284-1.449.552-6.067 1.953-12.562 2.483-18.702 1.526-4.548-.708-8.82-2.544-9.179-3.945-.237-.927.83-1.835 2.542-2.164 1.031-.198 3.485-.2 5.323-.006zm61.555-.005c1.848.342 2.92 1.214 2.673 2.175-.354 1.384-4.312 3.121-8.85 3.885-6.174 1.039-12.843.525-19.03-1.466-.834-.268-1.486-.517-1.45-.553.038-.035 1.049-.176 2.248-.312 2.86-.323 5.622-.852 9.94-1.903 3.84-.935 7.167-1.599 9.08-1.811 1.761-.196 4.373-.203 5.389-.015zm-31.096 7.914c0 2.038-.01 2.104-.365 2.215-.464.146-2.982.141-3.67-.007l-.52-.112V55.49h4.555v2.102zm-2.928 4.26c.582.05 1.478.033 1.993-.04l.936-.133v2.13c0 1.878-.034 2.142-.285 2.243-.375.15-3.251.141-3.823-.01l-.448-.12v-2.159c0-1.98.024-2.152.285-2.081.156.042.76.12 1.342.17zm1.586 6.24l1.343-.094v1.361c0 2.16-.695 3.102-2.286 3.102-1.568 0-2.27-.975-2.27-3.156v-1.417l.936.15c.514.083 1.54.107 2.277.055z" fill="#87121D"/><circle cx="59.5" cy="59.5" r="58.5" stroke="#87121D" stroke-width="2"/><path stroke="#87121D" stroke-width="2" d="M16.293 99.293l83-83"/></svg>