<svg width="105" height="78" fill="none" xmlns="http://www.w3.org/2000/svg"><path fill-rule="evenodd" clip-rule="evenodd" d="M23.47 13.547C10.757 21.004.29 27.27.215 27.47c-.175.457.323 1.09.859 1.09.332 0 4.85-2.533 8.585-4.816l.846-.517V75.38h-4.94c-4.726 0-4.954.024-5.23.546-.722 1.37-2.546 1.305 36.875 1.305 33.022 0 36.573-.04 36.883-.418.248-.304.267-.54.069-.86-.253-.407-2.657-.446-31.055-.508l-30.78-.067.066-26.635.066-26.634 17.064-10c9.385-5.5 17.19-10 17.343-10 .154 0 7.404 4.175 16.111 9.278 8.972 5.258 15.993 9.215 16.206 9.132.63-.246.73-.963.204-1.464C78.795 18.493 47.646.242 47.023.092 46.783.035 36.234 6.06 23.47 13.547zm47.868 12.608l-10.681 5.237-.068 14.493-.067 14.492.615 1.351c2.474 5.43 10.011 11.273 18.981 14.715l2.267.87 3.172-1.28c8.26-3.332 15.132-8.74 17.685-13.92l1.053-2.136V45.888c0-11.588-.063-14.142-.356-14.388-.498-.42-21.33-10.614-21.654-10.596-.146.008-5.072 2.371-10.947 5.252zm21.69 1.894l9.444 4.604v27.138l-.64 1.282c-2.508 5.025-9.152 10.16-17.506 13.529l-1.99.803-2.373-.959c-2.968-1.2-6.576-3.11-9.04-4.788-3.697-2.516-7.453-6.692-8.534-9.488-.224-.58-.288-4.382-.238-14.144l.069-13.351 10.03-4.934c9.175-4.513 10.086-4.907 10.682-4.615.358.176 4.901 2.391 10.095 4.923zm-59.681 4.124c-.097.098-.177 5.562-.177 12.142 0 10.665.045 11.98.413 12.124.226.088 5.772.16 12.323.16 8.916 0 11.99-.08 12.223-.317.442-.448.389-1.184-.1-1.374-.226-.088-2.747-.16-5.6-.16h-5.19V33.85H52.4c5.455 0 6.202-.15 6.002-1.208-.095-.496-.474-.514-12.488-.58-6.815-.038-12.47.012-12.567.11zm12.068 12.126v10.449H34.734V33.85h10.681v10.448z" fill="#87121D"/><path fill-rule="evenodd" clip-rule="evenodd" d="M91.035 44.45c.421.355.478.987.127 1.413l-9.925 12.034a.99.99 0 01-1.465.067l-5.955-6.017a1.01 1.01 0 010-1.418.985.985 0 011.404 0l5.186 5.24 9.23-11.19a.986.986 0 011.398-.129z" fill="#87121D"/></svg>