<svg width="104" height="105" fill="none" xmlns="http://www.w3.org/2000/svg"><path fill-rule="evenodd" clip-rule="evenodd" d="M51.114.876c-.303.335-.334.971-.286 5.843l.054 5.468.559.313c.503.282.615.282 1.117 0l.559-.313.054-5.468c.048-4.872.017-5.508-.285-5.843C52.699.669 52.3.5 52 .5c-.301 0-.7.17-.886.376zM31.686 4.774c-.224.224-.407.552-.407.728 0 .176.886 2.476 1.97 5.11 2.115 5.147 2.316 5.438 3.469 5.032 1.163-.41 1.087-.84-1.075-6.07-1.183-2.862-2.139-4.9-2.352-5.014-.57-.306-1.166-.226-1.605.214zm38.984-.205c-.178.104-1.22 2.357-2.315 5.007-2.16 5.227-2.237 5.659-1.074 6.068 1.153.406 1.354.115 3.47-5.032 1.083-2.634 1.969-4.934 1.969-5.11 0-.82-1.262-1.395-2.05-.933zM15.23 15.764c-.223.224-.406.608-.406.853 0 .603 7.426 8.102 8.023 8.102.73 0 1.321-.572 1.321-1.277 0-.564-.462-1.108-3.713-4.364-3.968-3.976-4.333-4.207-5.225-3.314zm68.312 3.314c-3.25 3.256-3.713 3.8-3.713 4.364 0 .705.592 1.277 1.322 1.277.597 0 8.022-7.5 8.022-8.102 0-.614-.7-1.26-1.365-1.26-.445 0-1.27.72-4.266 3.72zm-35.708 5.178c-2.737.386-6.683 1.617-9.141 2.853-9.488 4.768-15.594 13.959-16.475 24.796l-.134 1.644-2.36-.79c-6.024-2.015-16.08-4.431-18.441-4.431-1.11 0-1.717 1.38-.922 2.1.22.2 1.496.54 3.2.852 8.616 1.579 18.56 4.693 27.413 8.583 5.639 2.478 15.96 7.95 18.242 9.67.332.25.157.418-1.93 1.844-1.843 1.26-6.118 4.488-9.189 6.941-.472.377-.477.375-3.9-1.589-8.027-4.607-16.53-8.49-24.722-11.287-3.88-1.325-7.68-2.46-8.232-2.46-1.02 0-1.624 1.428-.885 2.097.2.181 2.005.833 4.012 1.448 7.038 2.156 13.366 4.683 20.274 8.097 4.099 2.024 10.687 5.65 10.694 5.883.002.068-.843.887-1.876 1.82-1.033.934-3.355 3.154-5.159 4.935L25.026 90.5l-2.668-1.56c-6.907-4.038-19.428-9.88-21.176-9.88-.771 0-1.329.831-1.064 1.587.226.644.301.684 4.55 2.422 4.016 1.641 11.002 5.072 15.28 7.504 1.708.97 3.145 1.8 3.195 1.846.049.046-.326.515-.832 1.045-3.036 3.17-7.891 9.2-7.891 9.801 0 .86.365 1.235 1.204 1.235.758 0 .849-.081 2.78-2.493 7.599-9.485 16.663-18.274 26.385-25.585 12.68-9.537 26.738-16.853 41.416-21.557 3.902-1.25 10.375-2.882 14.234-3.587 1.706-.312 2.979-.65 3.2-.85.796-.721.188-2.1-.927-2.1-2.383 0-12.85 2.543-18.803 4.568-1.165.396-2.136.698-2.16.67-.022-.026-.151-1.147-.287-2.49-1.026-10.196-6.837-18.873-15.863-23.688-2.395-1.277-6.123-2.522-8.849-2.954-1.913-.303-7.27-.41-8.914-.178zm9.259 2.899c8.08 1.569 15.082 6.843 18.822 14.177 1.86 3.648 2.78 6.996 3.023 11.001l.135 2.23-3.228 1.29c-6.655 2.66-13.63 6.152-20.277 10.15-1.796 1.08-3.336 1.996-3.422 2.034-.087.039-1.595-.797-3.352-1.857-7.366-4.445-17.031-9.182-22.992-11.268l-1.077-.377.126-2.34a26.68 26.68 0 017.62-17.294c4.707-4.79 10.172-7.39 17.293-8.228 1.356-.16 5.393.106 7.329.482zM4.262 32.249c-.504.505-.523 1.256-.044 1.691.2.181 2.45 1.202 5.002 2.268 4.785 2 5.38 2.135 5.813 1.323.306-.572.235-1.32-.157-1.659-.48-.414-9.263-4.03-9.79-4.03-.23 0-.6.184-.824.407zm89.661 1.487c-2.472 1.034-4.643 2.004-4.824 2.155-.37.308-.433 1.08-.133 1.64.432.81 1.027.675 5.8-1.313 2.545-1.06 4.797-2.08 5.003-2.267.759-.688.15-2.117-.895-2.102-.251.004-2.479.853-4.95 1.887zm7.44 29.5c-9.078 2.726-16.576 5.689-24.377 9.632C66.668 78.084 58.443 83.51 49.257 91.16c-4.68 3.899-11.581 10.455-12.185 11.578-.36.669-.361.735-.035 1.235.262.399.517.528 1.047.528.628 0 .999-.296 3.6-2.87 16.9-16.724 36.414-28.544 57.93-35.09 1.999-.608 3.804-1.26 4.012-1.448.493-.447.481-1.193-.029-1.703-.441-.442-1.116-.488-2.234-.153zM99.23 80.257c-12.555 5.225-23.85 11.817-34.159 19.938-2.386 1.88-3.03 2.49-3.08 2.923-.103.9.282 1.382 1.106 1.382.602 0 1.1-.299 2.99-1.794 11.05-8.75 23.16-15.716 36.393-20.935 1.312-.517 1.769-1.23 1.314-2.05-.506-.911-1.316-.816-4.564.536z" fill="#87121D"/></svg>