<svg width="115" height="91" fill="none" xmlns="http://www.w3.org/2000/svg"><path d="M47.423.773l.02.3c-7.27.501-9.745.716-13.325 1.153-9.64 1.179-17.5 3.017-23.141 5.327C8.156 8.708 5.9 9.976 4.254 11.329 2.61 12.684 1.59 14.11 1.21 15.58L47.423.773zm0 0l.02.3c1.817-.126 7.593-.104 13.448 0 5.853.104 11.748.288 13.798.483l.028-.299-.028.299c11.634 1.102 20.98 2.939 27.632 5.351 3.326 1.207 5.967 2.553 7.881 4.014 1.915 1.461 3.084 3.023 3.508 4.658.015.055.036.253.056.644.02.376.037.902.053 1.586.031 1.368.055 3.362.071 6.048.032 5.371.034 13.503.009 24.91l-.07 32.153-.615 1.106.262.146-.262-.146c-1.393 2.506-4.25 4.628-9.139 6.69-1.638.69-2.634 1.039-3.32 1.116-.333.037-.576.007-.775-.069-.2-.076-.38-.209-.576-.416h0l-.52-.55V71.602l-.212-.065-1.285-.392c-5.281-1.61-13.704-3.04-23.262-3.956-6.01-.575-26.173-.659-31.992-.133-10.23.926-18.989 2.382-24.532 4.086l.089.287-.088-.287-1.356.417-.212.065M47.423.773l-31.389 70.85m0 0v.222m0-.222v.222m0 0v16.953l-.548.58c-.185.195-.366.32-.575.39-.211.072-.475.096-.836.05-.737-.094-1.803-.466-3.5-1.18-2.244-.943-4.2-2.045-5.743-3.207-1.547-1.163-2.663-2.375-3.25-3.531l-.492-.974-.07-32.158c-.025-11.408-.023-19.54.009-24.911m15.005 47.988L1.03 23.857m97.856 43.995l-.373-.093-.55-.138h-.001c-.298-.075-2.194-.508-4.216-.964A150.134 150.134 0 0191 66.013a51.964 51.964 0 01-.953-.243 5.982 5.982 0 01-.517-.153m9.355 2.235l-9.243-2.514m9.243 2.514V46.504c0-2.33-.004-4.413-.007-6.276-.005-3.026-.009-5.473.004-7.457.021-3.21.087-5.189.262-6.44.175-1.257.45-1.697.81-1.94.194-.13.436-.22.768-.32l.239-.071c.276-.081.596-.175.949-.306 2.899-1.07 5.215-2.302 6.813-3.638 1.076-.9 1.723-1.783 1.831-2.712.11-.944-.344-1.837-1.228-2.726l-.212.211.212-.211c-1.217-1.225-3.114-2.372-5.557-3.424-2.448-1.055-5.463-2.022-8.933-2.877-6.942-1.71-15.727-2.978-25.485-3.59-3.708-.233-18.884-.296-22.435-.094-9.452.539-18.082 1.7-25.098 3.305-7.003 1.602-12.436 3.655-15.46 5.998h0c-.703.545-1.257 1.174-1.605 1.807-.347.629-.505 1.29-.365 1.88h0c.12.509.436 1.022.896 1.528.461.51 1.082 1.028 1.839 1.547 1.514 1.038 3.601 2.095 6.125 3.084.62.242 1.22.515 1.684.757.233.122.428.233.574.328a2.091 2.091 0 01.218.163.309.309 0 01.01.01 1.39 1.39 0 01.047.198c.025.157.05.388.072.72.045.66.078 1.692.104 3.263.05 3.14.066 8.415.07 17.153.002 5.785.024 11.044.059 14.858.017 1.906.038 3.452.06 4.522.011.535.023.952.035 1.237a6.299 6.299 0 00.032.439.323.323 0 00.055.145.303.303 0 00.25.132.545.545 0 00.084-.008h.001l.083-.015a70.999 70.999 0 001.106-.242c.7-.16 1.64-.38 2.651-.622 2.021-.483 4.156-.977 4.747-1.097h0l1.086-.222.136-.028.067-.121 9.626-17.474c2.647-4.805 5.099-9.209 6.918-12.433.91-1.613 1.66-2.93 2.197-3.854.269-.463.483-.825.637-1.077a10.277 10.277 0 01.229-.358m52.799 37.696l-72.67-2.645m63.315.41l.112-.279m-.112.279s0 0 0 0l.112-.279m-.112.279a.437.437 0 01-.127-.083.946.946 0 01-.079-.081 3.022 3.022 0 01-.169-.219c-.126-.176-.29-.427-.491-.748a98.41 98.41 0 01-1.662-2.797c-1.407-2.435-3.406-6.004-5.936-10.598a1282.898 1282.898 0 00-5.647-10.158 330.266 330.266 0 00-1.817-3.194 58.964 58.964 0 00-.536-.912 10.82 10.82 0 00-.158-.255l-.049-.073a1.21 1.21 0 00-.424-.258 1.6 1.6 0 00-.552-.116c-.376 0-.74.158-1.19.658-.46.51-.98 1.345-1.658 2.637l-1.052 2.007-.166.317-.283-.22-1.186-.92c-3.475-2.698-7.667-3.255-11.339-1.538l-1.337.625-.253.119-.136-.245L51.6 36.54a352.095 352.095 0 01-2.478-4.526 11.36 11.36 0 00-.692-1.136c-.24-.343-.433-.567-.531-.64m41.743 35.101c-.323-.128-3.254-5.204-8.313-14.392-4.299-7.806-8.013-14.402-8.254-14.657-.241-.255-.777-.464-1.192-.464-.975 0-1.757.867-3.113 3.456l-.911 1.736.043.033-.184.238-.266-.14.025-.047-.945-.734c-3.556-2.76-7.867-3.342-11.65-1.573l-1.337.626-1.683-3.027a352.086 352.086 0 01-2.475-4.52c-.435-.821-1.025-1.666-1.31-1.877m-.178.241l.178-.241m-.178.241s0 0 0 0l.178-.241m-.178.241a1.713 1.713 0 00-.958-.31c-.34-.01-.647.075-.855.23m1.991-.161c-.633-.469-1.641-.496-2.197-.06m52.705 37.532h-.3v-.075l.3.075zm0 0l.072-.291-.072-.019v.31zm-72.37-2.261l9.627-17.474c5.294-9.61 9.812-17.62 10.038-17.797m-19.664 35.27l-1.085.222 1.085-.222zM45.88 29.936l.185.236s0 0 0 0m-.185-.236l.186.236m0 0l.02-.016m-.02.016a.24.24 0 00.028-.027m-.008.011l.001-.002.007-.01m0 0a.027.027 0 00.003-.002l-.003.003zM66.37 63.307l-.086-.154-1.395-2.507.262-.146-.262.146a63.376 63.376 0 01-1.023-1.91 22.645 22.645 0 01-.339-.688 2.888 2.888 0 01-.172-.424m3.015 5.684l17.939 1.33c.092-.086.094-.193.095-.212h0a.311.311 0 00-.022-.125.572.572 0 00-.028-.068 5.375 5.375 0 00-.089-.186 37.684 37.684 0 00-.34-.661 255.3 255.3 0 00-1.273-2.382c-1.08-2.001-2.581-4.75-4.243-7.764l-.262.145.262-.145c-1.66-3.014-3.19-5.773-4.314-7.792a511.641 511.641 0 00-1.35-2.411 81.295 81.295 0 00-.496-.866 2.936 2.936 0 00-.036-.058v-.002c-.006-.008-.026-.039-.049-.064h0a.314.314 0 00-.35-.076.403.403 0 00-.117.076c-.044.04-.087.092-.127.142a6.874 6.874 0 00-.313.46c-.25.392-.593.965-.993 1.657a230.152 230.152 0 00-2.874 5.16c-1.03 1.9-2.049 3.825-2.803 5.308-.376.74-.688 1.373-.903 1.839a11.05 11.05 0 00-.248.573c-.028.073-.051.14-.067.198a.729.729 0 00-.02.093.391.391 0 00.006.147m3.015 5.684h.176m-.176 0h.176m-3.19-5.684l.29-.072-.29.072s0 0 0 0zm3.19 5.684h1.676c2.006 0 9.93.682 13.31 1.149.675.093 1.3.169 1.763.217m-16.749-1.367l16.749 1.367M1.029 23.857c.016-2.686.04-4.68.07-6.048m-.07 6.048l.07-6.048m0 0c.016-.684.034-1.21.054-1.586M1.1 17.81l.053-1.586m0 0c.02-.391.041-.588.056-.644l-.056.644zm82.141 48.45c.231.023.425.04.565.049m-.565-.05l.565.05m0 0c.07.004.132.006.18.005m-.18-.005l.18.005m0 0l.043-.001m-.042.001l.042-.001m0 0a.53.53 0 00.038-.004m-.038.004l.038-.004m0 0a.394.394 0 00.058-.012m-.058.012l.058-.012m0 0h0m0 0h0m0 0a.307.307 0 00.129-.072l-.128.072zm-73.044 20.02l-.114.278 1.286.531.416.172-.001-.45-.063-28.9-.062-28.902v-.209l-.197-.072-1.223-.449c-.66-.242-1.917-.794-2.786-1.223-.869-.43-2.041-1.084-2.6-1.45h0l-1.04-.68-.465-.303v28.54c0 12.057.013 19.081.064 23.17.025 2.044.06 3.36.11 4.205.024.423.052.734.085.962a1.8 1.8 0 00.131.517c.179.365.495.755.895 1.146.404.395.906.805 1.474 1.208a20.795 20.795 0 003.976 2.187l.114-.278zM102.39 27.3l-.189.075v29.049c0 7.933.017 15.145.043 20.374.013 2.614.028 4.733.046 6.199.008.733.017 1.303.027 1.691.004.194.009.344.014.447.003.05.005.093.009.126a.48.48 0 00.007.057c.002.008.007.031.017.058.005.012.018.044.044.078.022.028.1.116.238.116a.39.39 0 00.114-.02h.002l.067-.024a19.507 19.507 0 00.712-.323c.438-.21 1.022-.497 1.646-.814 1.323-.671 2.488-1.402 3.378-2.102.877-.69 1.53-1.385 1.767-1.993h0a1.24 1.24 0 00.056-.25 7.31 7.31 0 00.037-.367c.022-.296.042-.708.06-1.246.035-1.079.06-2.68.078-4.916.035-4.471.037-11.488.013-21.945l-.064-27.875-.001-.556-.464.307-.979.648c-1.116.738-3.565 1.962-5.393 2.692l.112.279-.112-.279-1.285.514zm.192 57.677c-.007.002-.005.002.002 0h-.002zM61.797 62.918l.496-.01-.24-.435-7.07-12.814a3640.493 3640.493 0 01-7.392-13.43l-.266.137.266-.138c-.022-.043-.034-.09-.053-.161l-.02-.071a.793.793 0 00-.068-.178.371.371 0 00-.313-.197.447.447 0 00-.305.127 1.53 1.53 0 00-.195.223 11.05 11.05 0 00-.57.887c-.802 1.345-2.365 4.183-5.484 9.847l-2.697 4.896a624.377 624.377 0 00-4.773 8.805c-.6 1.135-1.08 2.059-1.403 2.703-.16.322-.284.577-.364.755-.039.087-.07.163-.09.221a.632.632 0 00-.028.101c-.003.016-.01.055-.003.103a.307.307 0 00.195.249c.053.02.107.024.126.025.03.002.064.003.099.003.07 0 .162-.003.269-.008.215-.01.51-.032.858-.06.7-.059 1.631-.151 2.627-.263 6.773-.762 10.203-.977 18.296-1.147l8.102-.17zm3.444-18.666l-.226.198.225-.198c-.793-.908-2.162-1.817-3.282-2.18-1.168-.377-2.48-.54-3.436-.414h0c-.585.078-1.315.303-1.897.547a5.142 5.142 0 00-.756.38c-.098.063-.19.131-.261.204a.505.505 0 00-.162.345c0 .067.022.132.03.157l.001.001c.013.038.031.083.052.13.04.096.099.221.171.37.144.296.35.697.596 1.164a192.1 192.1 0 001.812 3.35c.663 1.2 1.333 2.39 1.85 3.28.259.444.48.817.645 1.079.082.13.152.238.206.314.027.037.055.074.081.104a.48.48 0 00.056.054.311.311 0 00.202.074c.104 0 .175-.054.189-.064h0a.433.433 0 00.056-.05.99.99 0 00.07-.087c.046-.06.103-.144.168-.244.13-.203.308-.494.517-.849.42-.71.974-1.688 1.565-2.762l2.143-3.9.101-.184-.138-.157-.578-.662z" fill="#87121D" stroke="#fff" stroke-width=".6"/></svg>