<svg width="87" height="90" fill="none" xmlns="http://www.w3.org/2000/svg"><path fill-rule="evenodd" clip-rule="evenodd" d="M7.901 1.034c-.131.14-.214.826-.214 1.773 0 .946.083 1.632.214 1.772.147.158 1.037.229 2.85.229h2.637v1.13c0 .965-.052 1.15-.357 1.253-1.022.347-2.31 2.335-2.313 3.573-.002.524-.003.524-1.303.524-.774 0-1.387.093-1.514.229-.142.152-.214.982-.214 2.477v2.25H6.631c-1.42 0-1.616.23-1.616 1.9v1.301l-.878.226c-2.532.65-3.819 2.903-2.83 4.958.504 1.05 1.791 2.023 2.91 2.203l.798.128v1.384c0 .895.08 1.456.229 1.588.125.112.707.23 1.291.261l1.063.059.046 18.058.045 18.058H6.566c-.637 0-1.216.1-1.337.229-.126.135-.214.782-.214 1.575v1.346l-.936.236c-2.64.666-3.886 3.237-2.585 5.34.487.787 1.81 1.64 2.853 1.838l.668.127v1.311c0 1.682.194 1.911 1.616 1.911h1.056v2.25c0 1.494.072 2.325.214 2.477.127.136.74.229 1.514.229 1.21 0 1.3.028 1.3.406 0 1.541 1.467 3.639 2.718 3.887.978.194 1.841-.043 2.536-.695.82-.77 1.326-1.684 1.484-2.68l.13-.823 1.363-.095c.75-.053 1.429-.167 1.51-.254.081-.087.175-1.18.207-2.43l.06-2.272h1.752v2.25c0 1.494.071 2.325.213 2.477.128.136.74.229 1.515.229 1.209 0 1.3.028 1.3.406 0 1.541 1.467 3.639 2.717 3.887.978.194 1.841-.043 2.536-.695.82-.77 1.326-1.684 1.484-2.68l.131-.823 1.243-.052c1.753-.073 1.866-.25 1.866-2.923V80.28h1.781v2.25c0 1.494.072 2.325.215 2.477.127.136.74.229 1.514.229 1.21 0 1.3.028 1.3.406 0 1.541 1.467 3.639 2.718 3.887 1.164.231 1.926-.046 2.809-1.023.769-.85 1.244-1.944 1.244-2.864 0-.378.091-.406 1.3-.406.774 0 1.388-.093 1.515-.23.142-.151.214-.982.214-2.477V80.28h1.96v2.264c0 1.617.065 2.322.23 2.468.126.112.786.23 1.467.262l1.237.057.103.667a4.927 4.927 0 001.424 2.748c.756.73 1.605.984 2.62.783 1.25-.248 2.717-2.346 2.717-3.887 0-.378.092-.406 1.3-.406.775 0 1.388-.093 1.515-.23.142-.151.214-.982.214-2.477V80.28h1.752l.06 2.272c.032 1.25.125 2.343.206 2.43.082.087.761.201 1.51.254l1.363.095.13.823c.159.996.664 1.91 1.485 2.68.694.653 1.558.889 2.536.695 1.25-.248 2.716-2.346 2.716-3.887 0-.378.092-.406 1.301-.406.774 0 1.387-.093 1.514-.23.143-.151.214-.982.214-2.477V80.28h1.057c1.421 0 1.616-.23 1.616-1.91v-1.312l.668-.127c1.043-.198 2.365-1.05 2.853-1.838 1.3-2.103.055-4.674-2.586-5.34l-.935-.236v-1.346c0-.793-.088-1.44-.214-1.575-.121-.13-.701-.229-1.337-.229h-1.124l.046-18.058.045-18.058 1.063-.059c.585-.032 1.166-.15 1.292-.261.148-.132.229-.693.229-1.588V26.96l.797-.128c1.12-.18 2.407-1.154 2.911-2.203.988-2.055-.298-4.309-2.83-4.959l-.878-.225v-1.301c0-1.67-.197-1.9-1.616-1.9h-1.057v-2.25c0-1.495-.071-2.325-.213-2.477-.128-.136-.741-.229-1.515-.229-1.3 0-1.3 0-1.302-.524-.004-1.238-1.292-3.226-2.314-3.573-.304-.104-.357-.288-.357-1.252V4.808H76.6c1.813 0 2.704-.071 2.85-.229.288-.307.288-3.237 0-3.545C79.189.754 67.434.71 67.022.988c-.404.274-.487 2.731-.111 3.344.29.473.31.476 2.96.476h2.668v1.144c0 .905-.058 1.143-.276 1.143-.152 0-.657.408-1.123.906-.621.665-.908 1.159-1.077 1.858-.127.524-.261 1.06-.297 1.19-.045.162-.47.239-1.31.239-1.688 0-1.796.176-1.796 2.901v2.054h-1.782v-2.249c0-1.495-.072-2.325-.214-2.477-.127-.136-.74-.229-1.514-.229-1.3 0-1.3 0-1.303-.524-.004-1.238-1.291-3.226-2.313-3.573-.305-.104-.357-.288-.357-1.252V4.808h2.636c1.814 0 2.704-.071 2.851-.229.133-.142.214-.85.214-1.885 0-1.335-.055-1.68-.282-1.773-.368-.15-11.896-.15-12.264 0-.227.094-.282.438-.282 1.773 0 1.034.08 1.743.214 1.885.147.158 1.037.229 2.85.229h2.638v1.144c0 .905-.058 1.143-.276 1.143-.152 0-.655.407-1.119.905-.81.87-1.278 1.926-1.278 2.881 0 .378-.092.407-1.3.407-.774 0-1.388.093-1.515.229-.142.152-.214.982-.214 2.477v2.25h-1.96v-2.25c0-1.495-.071-2.325-.213-2.477-.127-.136-.74-.229-1.515-.229-1.3 0-1.3 0-1.302-.524-.004-1.238-1.292-3.226-2.313-3.573-.305-.104-.358-.288-.358-1.252V4.808h2.637c1.814 0 2.704-.071 2.85-.229.134-.142.215-.85.215-1.885 0-1.335-.055-1.68-.282-1.773-.155-.063-2.915-.115-6.132-.115-3.218 0-5.977.052-6.132.115-.227.094-.282.438-.282 1.773 0 1.034.08 1.743.214 1.885.147.158 1.037.229 2.85.229h2.637v1.144c0 .798-.068 1.143-.227 1.143-.816 0-2.44 2.437-2.444 3.669-.001.524-.002.524-1.302.524-.774 0-1.387.093-1.514.229-.142.152-.214.982-.214 2.477v2.25H35.48v-2.055c0-2.725-.109-2.901-1.797-2.901-.84 0-1.264-.077-1.309-.238a65.32 65.32 0 01-.297-1.19c-.17-.7-.456-1.194-1.078-1.86-.465-.497-.97-.905-1.122-.905-.218 0-.276-.238-.276-1.143V4.808h2.668c2.649 0 2.67-.003 2.96-.476.375-.613.293-3.07-.111-3.344C34.832.795 23.217.732 22.756.921c-.227.094-.281.438-.281 1.773 0 1.034.08 1.743.213 1.885.147.158 1.038.229 2.85.229h2.638v1.13c0 .965-.053 1.15-.357 1.253-1.022.347-2.31 2.335-2.314 3.573-.002.524-.003.524-1.302.524-.774 0-1.387.093-1.515.229-.142.152-.213.982-.213 2.477v2.25h-1.782v-2.055c0-2.725-.11-2.901-1.797-2.901-.84 0-1.264-.077-1.31-.238a65.32 65.32 0 01-.296-1.19c-.17-.7-.456-1.194-1.078-1.86-.466-.497-.971-.905-1.123-.905-.218 0-.275-.238-.275-1.143V4.808h2.662c2.55 0 2.674-.018 2.94-.424.384-.587.383-2.867-.003-3.279-.244-.26-1.064-.3-6.289-.3-4.436 0-6.065.06-6.223.23zm5.531 1.773c-.085.476-.085.476-2.202.476H9.112V2.33h4.405l-.085.477zm5.836 0v.476h-4.413l-.085-.476-.085-.477h4.583v.477zm8.95.006l-.086.482-2.16-.054c-2.088-.051-2.163-.067-2.218-.482-.057-.426-.04-.429 2.247-.429h2.303l-.086.483zm5.805-.054c-.055.415-.13.43-2.218.482l-2.16.054-.087-.482-.086-.483h2.304c2.287 0 2.303.003 2.247.43zm8.983.054l-.087.482-2.16-.054c-2.088-.051-2.163-.067-2.218-.482-.056-.426-.04-.429 2.247-.429h2.304l-.086.483zm5.804-.054c-.055.415-.13.43-2.217.482l-2.161.054-.086-.482-.086-.483h2.303c2.288 0 2.304.003 2.247.43zm8.983.054l-.086.482-2.16-.054c-2.088-.051-2.163-.067-2.218-.482-.057-.426-.04-.429 2.246-.429h2.304l-.086.483zm5.805-.054c-.055.415-.13.43-2.218.482l-2.16.054-.087-.482-.086-.483h2.304c2.287 0 2.303.003 2.247.43zm8.982.054l-.086.482-2.16-.054c-2.088-.051-2.163-.067-2.218-.482-.057-.426-.04-.429 2.247-.429h2.304l-.087.483zm5.805-.054c-.055.415-.13.43-2.218.482l-2.16.054-.087-.482-.086-.483h2.304c2.287 0 2.304.003 2.247.43zM15.258 9.058c.603.644.978 1.685.98 2.716.002.873.278 1.039 1.73 1.039h1.3v70.899h-1.3c-1.452 0-1.729.166-1.73 1.039-.003 1.703-1.052 3.344-2.137 3.344-1.101 0-2.138-1.742-2.138-3.592 0-.602-.392-.791-1.639-.791H9.112v-70.9h1.144c1.422 0 1.707-.113 1.707-.677 0-1.127.408-2.403.972-3.043.787-.892 1.512-.903 2.323-.034zm14.59-.23c.64.538.957 1.25 1.103 2.478.067.567.202 1.138.3 1.269.111.152.651.238 1.49.238h1.314v70.899h-1.314c-.839 0-1.378.086-1.49.238-.098.131-.233.702-.3 1.269-.303 2.546-1.897 3.664-3.215 2.254-.544-.582-.986-1.913-.986-2.97 0-.612-.39-.791-1.728-.791H23.72l.045-35.402.045-35.402 1.24-.057c1.31-.06 1.7-.247 1.7-.815 0-.191.09-.801.201-1.355.38-1.891 1.783-2.79 2.896-1.854zm14.98.224c.544.582.986 1.912.986 2.97 0 .612.39.79 1.728.79h1.3v70.9h-1.3c-1.338 0-1.728.179-1.728.791 0 1.85-1.037 3.592-2.138 3.592s-2.138-1.742-2.138-3.592c0-.612-.39-.791-1.728-.791h-1.3v-70.9h1.3c1.337 0 1.728-.178 1.728-.79 0-1.85 1.037-3.593 2.138-3.593.406 0 .737.18 1.152.623zm14.787 0c.544.582.986 1.912.986 2.97 0 .612.39.79 1.728.79h1.3v70.9h-1.3c-1.42 0-1.728.17-1.728.956 0 1.001-.53 2.438-1.085 2.937-1.331 1.198-2.825.054-3.116-2.386-.067-.567-.201-1.138-.299-1.269-.112-.152-.651-.238-1.49-.238h-1.315v-70.9h1.301c1.42 0 1.728-.17 1.728-.956 0-1 .531-2.437 1.086-2.936.765-.689 1.477-.646 2.204.132zm14.788 0c.547.585.985 1.913.985 2.985 0 .567.389.753 1.7.814l1.24.057.045 35.402.045 35.402h-1.3c-1.34 0-1.73.178-1.73.791 0 1.057-.441 2.388-.985 2.97-1.318 1.41-2.912.292-3.215-2.254-.068-.567-.202-1.138-.3-1.269-.112-.152-.651-.238-1.49-.238h-1.314v-70.9h1.314c.839 0 1.378-.085 1.49-.237.098-.131.232-.702.3-1.27.303-2.546 1.897-3.663 3.215-2.253zM7.687 23.2v5.432H6.44v-1.423c0-1.601-.157-1.817-1.32-1.817-1.416 0-2.778-1.054-2.778-2.148 0-1.072 1.522-2.224 2.949-2.232.397-.002.818-.107.935-.233.127-.136.214-.792.214-1.62v-1.39h1.247v5.43zm14.746.047l.047 5.385h-1.787V17.747l.846.058.846.058.048 5.384zm14.787 0l.047 5.385H35.48V17.747l.847.058.846.058.047 5.384zm14.788 0l.047 5.385h-1.966v-5.305c0-2.918.058-5.366.128-5.44.07-.075.49-.111.935-.08l.808.056.048 5.384zm14.65-.047v5.432h-1.781v-5.305c0-2.918.053-5.362.119-5.432.065-.07.466-.127.89-.127h.773V23.2zm14.253-4.04c0 .827.087 1.483.214 1.62.118.125.539.23.936.232 1.426.008 2.948 1.16 2.948 2.232 0 1.094-1.361 2.148-2.777 2.148-1.163 0-1.32.216-1.32 1.817v1.423h-1.248v-5.305c0-2.918.054-5.362.12-5.432.064-.07.345-.127.623-.127h.504v1.391zm-58.48 29.15l.045 18.058h-1.783V30.135l.846.058.846.059.046 18.058zm14.787 0l.046 18.058H35.48V30.135l.847.058.846.059.045 18.058zm14.742-.048v18.011h-1.78l-.046-17.82c-.026-9.801-.006-17.932.042-18.069.06-.169.362-.23.937-.19l.848.058v18.01zm14.699.01V66.39l-.847-.058-.846-.058-.046-17.82c-.025-9.801-.008-17.927.039-18.058.05-.143.41-.239.892-.239h.808v18.117zM9.86 43.537c-.29.31-.269.638.066.996.234.25.809.3 3.486.3 3.279 0 3.895-.116 3.895-.731 0-.729-.316-.794-3.83-.794-2.41 0-3.466.067-3.617.229zm14.946.119c-.129.258-.104.468.091.766.26.396.391.41 3.622.41 3.608 0 3.845-.063 3.723-.99l-.059-.439-3.6-.051c-3.358-.048-3.61-.028-3.777.304zm15.172-.222c-.284.123-.29.87-.009 1.17.151.162 1.19.229 3.536.229 3.047 0 3.347-.03 3.63-.366.247-.291.27-.445.111-.762-.191-.382-.328-.396-3.622-.382-1.883.008-3.523.058-3.646.111zm14.956.103c-.32.343-.257.876.131 1.098.201.115 1.682.198 3.55.198 2.678 0 3.253-.05 3.487-.3.154-.165.28-.405.28-.533 0-.615-.426-.692-3.83-.692-2.41 0-3.466.067-3.617.229zm14.58.14c-.238.476-.235.502.096.856.234.25.809.3 3.486.3 3.279 0 3.895-.116 3.895-.731 0-.73-.315-.794-3.86-.794-3.211 0-3.444.024-3.617.369zM9.865 46.58c-.29.31-.276.82.028 1.09.17.152 1.297.203 3.677.167 3.043-.046 3.454-.09 3.629-.386.143-.243.143-.424 0-.667-.175-.296-.587-.34-3.657-.385-2.541-.038-3.518.01-3.678.181zm15.031.07c-.156.168-.284.378-.284.468 0 .09.128.3.284.467.244.26.768.296 3.678.252 3.006-.046 3.416-.09 3.59-.386.143-.243.143-.424 0-.667-.174-.295-.584-.34-3.59-.385-2.91-.044-3.434-.008-3.678.252zm15.074-.066a.907.907 0 00-.214.534c0 .691.35.762 3.764.762 2.796 0 3.383-.048 3.617-.3.154-.164.28-.373.28-.462 0-.09-.126-.298-.28-.463-.234-.251-.82-.3-3.617-.3-2.357 0-3.399.067-3.55.23zm14.97-.004c-.29.31-.276.82.027 1.09.17.152 1.298.203 3.678.167 3.043-.046 3.454-.09 3.628-.386.144-.243.144-.424 0-.667-.174-.296-.586-.34-3.656-.385-2.541-.038-3.518.01-3.678.181zm14.675.07c-.156.168-.284.378-.284.468 0 .09.128.3.284.467.243.26.767.296 3.677.252 3.007-.046 3.417-.09 3.59-.386.144-.243.144-.424 0-.667-.173-.295-.583-.34-3.59-.385-2.91-.044-3.434-.008-3.677.252zM7.687 73.326v5.432H6.44v-1.392c0-1.579-.152-1.848-1.04-1.848-1.46 0-3.058-1.104-3.058-2.113 0-1.141 1.364-2.271 2.74-2.271 1.204 0 1.358-.207 1.358-1.817v-1.423h1.247v5.432zm14.746-.048l-.047 5.384-.847.058-.846.059V67.892h1.787l-.047 5.384zm14.787 0l-.047 5.384-.846.058-.847.059V67.892h1.787l-.047 5.384zm14.788 0l-.048 5.384h-1.78l-.048-5.384-.047-5.384h1.971l-.047 5.384zm14.65.058v5.443l-.846-.059-.846-.058-.047-5.384-.048-5.384h1.788v5.442zm14.253-4.02c0 1.611.155 1.818 1.358 1.818 1.376 0 2.74 1.13 2.74 2.271 0 1.01-1.597 2.113-3.058 2.113-.89 0-1.04.268-1.04 1.86v1.404l-.579-.06-.579-.06-.047-5.384-.047-5.384h1.252v1.423z" fill="#87121D"/></svg>