<svg width="52" height="52" fill="none" xmlns="http://www.w3.org/2000/svg"><path fill-rule="evenodd" clip-rule="evenodd" d="M24.122.032c-5.55.541-9.972 2.26-14.199 5.518-1.113.858-3.537 3.28-4.395 4.393C2.62 13.711.928 17.676.19 22.456c-.253 1.641-.253 5.481 0 7.122.739 4.78 2.43 8.745 5.338 12.513.858 1.112 3.282 3.535 4.395 4.393 3.186 2.456 6.727 4.133 10.484 4.963 1.99.44 3.13.553 5.598.553 2.467 0 3.607-.112 5.598-.553 3.756-.83 7.298-2.507 10.483-4.963 1.113-.858 3.537-3.28 4.396-4.393 2.457-3.184 4.134-6.724 4.965-10.479.44-1.99.553-3.129.553-5.595 0-2.466-.113-3.606-.553-5.595-.83-3.755-2.508-7.295-4.965-10.479-.859-1.112-3.283-3.535-4.396-4.393C38.384 2.696 34.446.994 29.872.27c-1.217-.192-4.726-.337-5.75-.238zm5.038 2.344c4.248.556 8.282 2.27 11.73 4.985.95.75 3.03 2.829 3.78 3.779 3.421 4.34 5.177 9.385 5.177 14.877 0 5.492-1.756 10.538-5.178 14.878-.749.95-2.83 3.03-3.78 3.778-4.342 3.42-9.39 5.175-14.884 5.175-5.495 0-10.543-1.755-14.885-5.175-.95-.749-3.031-2.828-3.78-3.778-3.422-4.34-5.178-9.386-5.178-14.878 0-5.492 1.756-10.538 5.178-14.877.749-.95 2.83-3.03 3.78-3.779 5.173-4.074 11.542-5.834 18.04-4.985zm-9.027 12.902c-.678.3-.642-.291-.642 10.76 0 9.68.007 10.01.196 10.32.285.468.792.611 1.321.373.791-.357 15.565-9.932 15.693-10.171.162-.302.162-.783 0-1.084-.098-.184-12.396-8.198-15.226-9.922-.647-.395-.937-.454-1.342-.276zm7.55 6.833c3.276 2.104 5.955 3.862 5.955 3.906 0 .074-11.845 7.732-11.96 7.732-.027 0-.05-3.48-.05-7.732 0-4.252.023-7.732.05-7.732.028 0 2.73 1.722 6.006 3.826z" fill="#fff"/></svg>