<svg width="71" height="79" fill="none" xmlns="http://www.w3.org/2000/svg"><path fill-rule="evenodd" clip-rule="evenodd" d="M15.688.207a2.79 2.79 0 00-.668.58c-.29.357-.31 1.698-.314 20.269l-.004 19.886h1.793V17.133h18.108v23.809h1.794V17.133h18.108v23.809h1.793V21.366c0-16.511-.04-19.673-.255-20.19-.52-1.252.765-1.18-20.669-1.173-13.708.004-19.431.063-19.686.204zM34.561 8.61l.047 6.719H16.495V1.798l9.01.046 9.009.047.047 6.719zm19.901 0l.047 6.719H36.397V1.798l9.009.046 9.01.047.046 6.719zM2.875 42.553c-.124.233-.186 5.32-.186 15.241v14.893H1.53c-.962 0-1.19.06-1.344.349C.083 73.229 0 74.515 0 75.912c0 2.406.019 2.54.399 2.807.357.252 3.986.281 35.141.281 34.504 0 34.745-.002 35.101-.36.324-.326.359-.602.359-2.808 0-1.346-.084-2.604-.186-2.796-.154-.29-.382-.349-1.344-.349h-1.16V57.729c0-13.358-.03-14.988-.281-15.241-.23-.232-.761-.284-2.922-.284-1.816 0-2.709.068-2.856.217-.142.142-.216.91-.216 2.254v2.039h-7.53v1.803h7.533l-.046 12.04-.046 12.04H9.054l-.046-12.04-.046-12.038 16.63-.046 16.632-.046.054-.857.055-.856H8.965v-2.039c0-1.345-.073-2.111-.216-2.254-.148-.15-1.062-.217-2.952-.217-2.522 0-2.751.028-2.922.349zm4.297 15.704v14.25h-2.69v-28.5h2.69v14.25zm59.346 0v14.25h-2.69v-28.5h2.69v14.25zM46.795 47.615v.902h2.69v-1.803h-2.69v.901zM17.93 60.602v8.478h1.792V52.125H17.93v8.477zm11.117 0v8.478h1.792V52.125h-1.792v8.477zm11.116.01v8.487l.851-.055.852-.055.046-8.432.047-8.432h-1.796v8.487zm10.98-.055l.046 8.432.852.055.851.055V52.125h-1.796l.047 8.432zM69.17 75.798l-.053 1.308-33.662.057-33.662.056v-2.728h67.43l-.053 1.307z" fill="#87121D"/></svg>