<svg width="97" height="69" fill="none" xmlns="http://www.w3.org/2000/svg"><mask id="a" fill="#fff"><path fill-rule="evenodd" clip-rule="evenodd" d="M47.454.468c-.453.455-.465.543-.465 3.359v2.891l-1.11 1.192c-2.016 2.169-2.008 2.135-2.075 8.816l-.058 5.766h-8.888l.006-2.24.006-2.24.827-.504c1.285-.784 1.842-1.909 1.958-3.956.112-1.972-.129-2.896-.897-3.447-.48-.343-.833-.384-3.295-.384-2.932 0-3.516.13-4.012.892-.405.621-.554 2.591-.3 3.96.258 1.384.881 2.33 2.01 3.047l.853.543v4.329H29.18c-3.157 0-4.356.189-5.876.927-2.364 1.149-4.444 3.891-4.448 5.865-.003 1.312.79 2.628 1.957 3.247l.836.444h19.085v1.932c0 2.248.214 3.118 1.008 4.086.85 1.035 1.818 1.407 3.683 1.412l1.564.004-.002 9.673-.001 9.673-3.307 2.647c-1.819 1.456-3.492 2.846-3.719 3.088-.493.529-.578 1.702-.177 2.456.552 1.038.685 1.054 8.628 1.054 8.179 0 8.219-.006 8.75-1.282.636-1.533.364-1.879-4.546-5.77l-2.765-2.193-.009-9.673-.009-9.673h1.523c2.295 0 3.605-.713 4.373-2.383.297-.644.352-1.254.355-3.941l.005-3.179-.5-.395c-.496-.393-.596-.395-16.855-.395-8.995 0-16.49-.052-16.654-.116-.714-.275-.06-2.056 1.148-3.122.392-.346 1.1-.81 1.575-1.03.86-.4.94-.402 23.218-.453 24.708-.056 23.507-.11 25.157 1.155.84.644 1.748 1.829 1.952 2.545a.73.73 0 01-.188.715c-.268.27-1.116.306-7.124.306H61l-.466.468c-.255.257-.465.69-.465.962 0 .271.21.704.465.961l.466.468 7.07-.004c6.448-.004 7.136-.035 7.834-.354 1.426-.651 2.344-2.316 2.103-3.812-.185-1.145-1.09-2.653-2.287-3.809-2.125-2.052-3.556-2.504-7.92-2.504h-2.992v-4.375l.521-.274c.754-.397 1.689-1.436 2.028-2.255.2-.482.294-1.326.294-2.64v-1.93l-.644-.649-.645-.648h-2.915c-3.188 0-3.498.088-4.042 1.146-.346.67-.384 3.335-.064 4.409.275.92 1.286 2.13 2.047 2.447l.577.24v4.529H53.08l-.06-5.766-.06-5.766-.516-.984c-.284-.542-.988-1.497-1.564-2.123l-1.048-1.137v-2.89c0-2.814-.012-2.903-.465-3.358C49.11.21 48.68 0 48.41 0c-.27 0-.7.21-.957.468zm1.663 9.587c.868.995.905 1.283.905 6.995v5.442H46.61v-5.118c0-5.39.067-5.92.889-7.033.514-.697 1.16-.811 1.617-.286zM3.077 12.27c-1.139.374-1.886.973-2.48 1.99l-.522.892-.06 13.533c-.043 9.838.002 13.82.164 14.582.676 3.188 3.1 5.765 6.193 6.586.707.187 1.305.353 1.33.368.023.016-1.235 3.881-2.797 8.59-1.562 4.71-2.84 8.718-2.84 8.908 0 .5.854 1.28 1.403 1.28 1.087 0 1.274-.412 4.06-8.97 1.452-4.46 2.775-8.373 2.94-8.694.53-1.031 1.22-1.206 4.758-1.206 3.29 0 4.038.14 4.69.879.176.198 1.692 4.087 3.37 8.643 1.677 4.556 3.177 8.48 3.333 8.718.376.577 1.165.761 1.778.415 1.077-.607 1.08-.593-2.324-9.837-1.736-4.714-3.157-8.626-3.157-8.694 0-.069.43-.124.954-.124 1.694 0 3.189-.953 4.01-2.556.513-1.001.512-2.655-.003-3.67-.509-1.002-1.726-2.087-2.625-2.338-.457-.127-3.644-.202-8.639-.203H8.7v-7.91c0-7.656-.012-7.923-.38-8.292-.564-.567-1.578-.508-2.07.121-.384.49-.394.696-.393 8.625 0 8.949-.001 8.94 1.198 9.825.517.382.814.398 9.031.49 8.016.09 8.52.116 8.895.458.565.514.54 1.63-.047 2.185l-.447.421-8.794-.055c-8.713-.054-8.801-.059-9.594-.485-1.256-.674-2.078-1.506-2.652-2.68l-.529-1.083-.052-13.416c-.046-11.766-.017-13.47.237-13.86.607-.931 1.604-1.041 2.379-.262.325.326.374.64.374 2.352 0 1.71.053 2.043.393 2.478.499.637 1.507.689 2.086.107.366-.369.39-.574.332-2.94-.06-2.478-.077-2.563-.637-3.364-1.142-1.632-3.197-2.382-4.952-1.806zm88.183.01c-1.014.379-1.61.851-2.285 1.81l-.569.809-.051 13.231-.051 13.23-7.91.002c-4.992 0-8.178.076-8.635.203-.899.251-2.117 1.336-2.625 2.338-.425.837-.516 2.535-.182 3.404.312.811 1.474 1.986 2.398 2.422a4.59 4.59 0 001.817.4c.835 0 .959.047.879.333-.052.184-1.469 4.056-3.15 8.604-1.681 4.548-3.056 8.434-3.056 8.634 0 .513.842 1.299 1.392 1.299.99 0 1.192-.419 4.416-9.151 1.722-4.664 3.273-8.642 3.448-8.84.649-.739 1.399-.88 4.688-.88 3.517 0 4.23.178 4.744 1.178.156.305 1.48 4.217 2.941 8.695C92.271 68.586 92.458 69 93.543 69c.549 0 1.402-.78 1.402-1.28 0-.19-1.277-4.198-2.84-8.907-1.561-4.71-2.82-8.575-2.795-8.59a32.76 32.76 0 011.329-.37c2.486-.659 4.372-2.297 5.61-4.87l.687-1.43.053-13.775c.035-9.01-.014-14.029-.142-14.505-.621-2.323-3.395-3.808-5.587-2.991zm-56.402 1.053c0 .974-.305 1.629-.883 1.894-.65.297-.891.267-1.461-.184-.43-.34-.5-.539-.5-1.43V12.58h2.844v.754zm29.949.208c0 .778-.093 1.055-.487 1.45-.392.395-.603.467-1.09.373-.873-.17-1.266-.746-1.266-1.853v-.932h2.843v.962zm28.959 2.016l.431.486-.052 13.469-.052 13.469-.439.895c-.547 1.117-1.667 2.291-2.729 2.862-.81.434-.852.437-9.655.491l-8.842.055-.399-.51c-.496-.633-.51-1.42-.036-2.009l.362-.45 8.533-.095c8.255-.092 8.55-.108 9.068-.49 1.245-.919 1.198-.335 1.198-14.77 0-10.167.053-13.134.237-13.366.666-.84 1.648-.855 2.375-.037zM53.244 34.881c0 2.797.232 2.669-4.833 2.669-5.066 0-4.834.128-4.834-2.669v-1.906h9.667v1.906zM50.82 64.187l2.303 1.859-2.297.053a122.1 122.1 0 01-4.688 0l-2.39-.053 2.236-1.848c1.23-1.016 2.304-1.852 2.385-1.858.082-.006 1.185.825 2.451 1.847z"/></mask><path fill-rule="evenodd" clip-rule="evenodd" d="M47.454.468c-.453.455-.465.543-.465 3.359v2.891l-1.11 1.192c-2.016 2.169-2.008 2.135-2.075 8.816l-.058 5.766h-8.888l.006-2.24.006-2.24.827-.504c1.285-.784 1.842-1.909 1.958-3.956.112-1.972-.129-2.896-.897-3.447-.48-.343-.833-.384-3.295-.384-2.932 0-3.516.13-4.012.892-.405.621-.554 2.591-.3 3.96.258 1.384.881 2.33 2.01 3.047l.853.543v4.329H29.18c-3.157 0-4.356.189-5.876.927-2.364 1.149-4.444 3.891-4.448 5.865-.003 1.312.79 2.628 1.957 3.247l.836.444h19.085v1.932c0 2.248.214 3.118 1.008 4.086.85 1.035 1.818 1.407 3.683 1.412l1.564.004-.002 9.673-.001 9.673-3.307 2.647c-1.819 1.456-3.492 2.846-3.719 3.088-.493.529-.578 1.702-.177 2.456.552 1.038.685 1.054 8.628 1.054 8.179 0 8.219-.006 8.75-1.282.636-1.533.364-1.879-4.546-5.77l-2.765-2.193-.009-9.673-.009-9.673h1.523c2.295 0 3.605-.713 4.373-2.383.297-.644.352-1.254.355-3.941l.005-3.179-.5-.395c-.496-.393-.596-.395-16.855-.395-8.995 0-16.49-.052-16.654-.116-.714-.275-.06-2.056 1.148-3.122.392-.346 1.1-.81 1.575-1.03.86-.4.94-.402 23.218-.453 24.708-.056 23.507-.11 25.157 1.155.84.644 1.748 1.829 1.952 2.545a.73.73 0 01-.188.715c-.268.27-1.116.306-7.124.306H61l-.466.468c-.255.257-.465.69-.465.962 0 .271.21.704.465.961l.466.468 7.07-.004c6.448-.004 7.136-.035 7.834-.354 1.426-.651 2.344-2.316 2.103-3.812-.185-1.145-1.09-2.653-2.287-3.809-2.125-2.052-3.556-2.504-7.92-2.504h-2.992v-4.375l.521-.274c.754-.397 1.689-1.436 2.028-2.255.2-.482.294-1.326.294-2.64v-1.93l-.644-.649-.645-.648h-2.915c-3.188 0-3.498.088-4.042 1.146-.346.67-.384 3.335-.064 4.409.275.92 1.286 2.13 2.047 2.447l.577.24v4.529H53.08l-.06-5.766-.06-5.766-.516-.984c-.284-.542-.988-1.497-1.564-2.123l-1.048-1.137v-2.89c0-2.814-.012-2.903-.465-3.358C49.11.21 48.68 0 48.41 0c-.27 0-.7.21-.957.468zm1.663 9.587c.868.995.905 1.283.905 6.995v5.442H46.61v-5.118c0-5.39.067-5.92.889-7.033.514-.697 1.16-.811 1.617-.286zM3.077 12.27c-1.139.374-1.886.973-2.48 1.99l-.522.892-.06 13.533c-.043 9.838.002 13.82.164 14.582.676 3.188 3.1 5.765 6.193 6.586.707.187 1.305.353 1.33.368.023.016-1.235 3.881-2.797 8.59-1.562 4.71-2.84 8.718-2.84 8.908 0 .5.854 1.28 1.403 1.28 1.087 0 1.274-.412 4.06-8.97 1.452-4.46 2.775-8.373 2.94-8.694.53-1.031 1.22-1.206 4.758-1.206 3.29 0 4.038.14 4.69.879.176.198 1.692 4.087 3.37 8.643 1.677 4.556 3.177 8.48 3.333 8.718.376.577 1.165.761 1.778.415 1.077-.607 1.08-.593-2.324-9.837-1.736-4.714-3.157-8.626-3.157-8.694 0-.069.43-.124.954-.124 1.694 0 3.189-.953 4.01-2.556.513-1.001.512-2.655-.003-3.67-.509-1.002-1.726-2.087-2.625-2.338-.457-.127-3.644-.202-8.639-.203H8.7v-7.91c0-7.656-.012-7.923-.38-8.292-.564-.567-1.578-.508-2.07.121-.384.49-.394.696-.393 8.625 0 8.949-.001 8.94 1.198 9.825.517.382.814.398 9.031.49 8.016.09 8.52.116 8.895.458.565.514.54 1.63-.047 2.185l-.447.421-8.794-.055c-8.713-.054-8.801-.059-9.594-.485-1.256-.674-2.078-1.506-2.652-2.68l-.529-1.083-.052-13.416c-.046-11.766-.017-13.47.237-13.86.607-.931 1.604-1.041 2.379-.262.325.326.374.64.374 2.352 0 1.71.053 2.043.393 2.478.499.637 1.507.689 2.086.107.366-.369.39-.574.332-2.94-.06-2.478-.077-2.563-.637-3.364-1.142-1.632-3.197-2.382-4.952-1.806zm88.183.01c-1.014.379-1.61.851-2.285 1.81l-.569.809-.051 13.231-.051 13.23-7.91.002c-4.992 0-8.178.076-8.635.203-.899.251-2.117 1.336-2.625 2.338-.425.837-.516 2.535-.182 3.404.312.811 1.474 1.986 2.398 2.422a4.59 4.59 0 001.817.4c.835 0 .959.047.879.333-.052.184-1.469 4.056-3.15 8.604-1.681 4.548-3.056 8.434-3.056 8.634 0 .513.842 1.299 1.392 1.299.99 0 1.192-.419 4.416-9.151 1.722-4.664 3.273-8.642 3.448-8.84.649-.739 1.399-.88 4.688-.88 3.517 0 4.23.178 4.744 1.178.156.305 1.48 4.217 2.941 8.695C92.271 68.586 92.458 69 93.543 69c.549 0 1.402-.78 1.402-1.28 0-.19-1.277-4.198-2.84-8.907-1.561-4.71-2.82-8.575-2.795-8.59a32.76 32.76 0 011.329-.37c2.486-.659 4.372-2.297 5.61-4.87l.687-1.43.053-13.775c.035-9.01-.014-14.029-.142-14.505-.621-2.323-3.395-3.808-5.587-2.991zm-56.402 1.053c0 .974-.305 1.629-.883 1.894-.65.297-.891.267-1.461-.184-.43-.34-.5-.539-.5-1.43V12.58h2.844v.754zm29.949.208c0 .778-.093 1.055-.487 1.45-.392.395-.603.467-1.09.373-.873-.17-1.266-.746-1.266-1.853v-.932h2.843v.962zm28.959 2.016l.431.486-.052 13.469-.052 13.469-.439.895c-.547 1.117-1.667 2.291-2.729 2.862-.81.434-.852.437-9.655.491l-8.842.055-.399-.51c-.496-.633-.51-1.42-.036-2.009l.362-.45 8.533-.095c8.255-.092 8.55-.108 9.068-.49 1.245-.919 1.198-.335 1.198-14.77 0-10.167.053-13.134.237-13.366.666-.84 1.648-.855 2.375-.037zM53.244 34.881c0 2.797.232 2.669-4.833 2.669-5.066 0-4.834.128-4.834-2.669v-1.906h9.667v1.906zM50.82 64.187l2.303 1.859-2.297.053a122.1 122.1 0 01-4.688 0l-2.39-.053 2.236-1.848c1.23-1.016 2.304-1.852 2.385-1.858.082-.006 1.185.825 2.451 1.847z" fill="#87121D" stroke="#fff" stroke-width=".4" mask="url(#a)"/></svg>