<svg width="81" height="86" fill="none" xmlns="http://www.w3.org/2000/svg"><mask id="a" fill="#fff"><path fill-rule="evenodd" clip-rule="evenodd" d="M38.992.487c-8.283 3.69-10.067 4.559-10.301 5.015-.337.653-.306.888.191 1.482l.433.517h4.332l-.047 1.96-.047 1.96-7.782 3.383c-7.275 3.164-7.8 3.42-8.06 3.939-.385.765-.131 1.483.638 1.806.663.278.137.476 8.887-3.348 3.06-1.338 5.564-2.406 5.564-2.373 0 .033-1.647 1.532-3.66 3.33-2.012 1.8-3.706 3.396-3.765 3.549-.344.901.297 1.93 1.202 1.93.605 0 .667-.05 6.779-5.504L38.3 13.72h4.396l4.944 4.413c6.111 5.455 6.173 5.505 6.779 5.505.952 0 1.602-1.15 1.14-2.016-.091-.172-1.786-1.758-3.765-3.523-1.98-1.765-3.598-3.236-3.598-3.268 0-.032 5.492 2.334 12.205 5.257l12.205 5.315-16.054.043c-8.83.023-23.286.023-32.125 0l-16.071-.043 2.947-1.26c3.139-1.343 3.758-1.764 3.758-2.553 0-.654-.667-1.314-1.327-1.314-.73 0-12.884 5.296-13.357 5.82C.013 26.5 0 26.63 0 29.774c0 3.202.007 3.268.403 3.73.395.462.448.474 2.427.529l2.023.056v41.658H3.02c-1.992 0-2.549.154-2.834.783-.12.264-.186 1.847-.186 4.45v4.038l.49.492.488.491h6.335c5.538 0 6.383-.034 6.718-.27.54-.38.72-.954.499-1.59-.326-.94-.697-.998-6.492-.998H2.845v-4.538H78.15v4.538H48.555c-21.228 0-29.745.053-30.127.187-1.046.366-1.264 1.652-.397 2.338.418.33.757.333 31.1.333 22.126 0 30.791-.052 31.085-.187a1.39 1.39 0 00.594-.596c.253-.559.253-8.129 0-8.688-.286-.629-.843-.783-2.835-.783h-1.833v-41.66l2.023-.055c1.98-.055 2.032-.067 2.427-.528.397-.464.404-.528.404-3.751v-3.28l-.46-.44c-.295-.28-6.34-2.993-16.777-7.527L47.443 11.42l-.048-1.959-.047-1.959h4.332l.433-.517c.498-.594.528-.829.192-1.482-.203-.395-1.108-.86-5.704-2.94C43.596 1.203 40.938.055 40.692.01c-.285-.052-.897.12-1.7.478zm3.577 3.299c.99.453 1.845.869 1.9.924.056.056-1.732.102-3.971.102-2.24 0-4.026-.047-3.97-.103.228-.229 3.575-1.716 3.896-1.73.19-.01 1.155.354 2.145.807zm2.077 5.438l.047 1.639h-8.379V9.294c0-.863.052-1.62.115-1.684.063-.063 1.926-.095 4.141-.07l4.028.045.048 1.639zm33.505 20.55v1.428H2.845v-2.858H78.15v1.43zm-52.045 17.9V61.29H7.531V34.06h18.575v13.615zm26.106 7.228v20.843H28.784V34.06h23.428v20.843zm21.253-7.228V61.29H54.889V34.06h18.576v13.615zM11.882 69.863v5.883H7.53v-5.77c0-3.175.05-5.822.111-5.884.061-.062 1.04-.112 2.176-.112h2.064v5.883zm7.028 0v5.883h-4.184V63.98h4.184v5.883zm7.196 0v5.883h-4.351V63.98h4.351v5.883zm33.134 0v5.883h-4.35V63.98h4.35v5.883zm7.029 0v5.883h-4.184V63.98h4.184v5.883zm7.156.042l.044 5.841h-4.355V63.97l2.134.047 2.133.047.044 5.841z"/></mask><path fill-rule="evenodd" clip-rule="evenodd" d="M38.992.487c-8.283 3.69-10.067 4.559-10.301 5.015-.337.653-.306.888.191 1.482l.433.517h4.332l-.047 1.96-.047 1.96-7.782 3.383c-7.275 3.164-7.8 3.42-8.06 3.939-.385.765-.131 1.483.638 1.806.663.278.137.476 8.887-3.348 3.06-1.338 5.564-2.406 5.564-2.373 0 .033-1.647 1.532-3.66 3.33-2.012 1.8-3.706 3.396-3.765 3.549-.344.901.297 1.93 1.202 1.93.605 0 .667-.05 6.779-5.504L38.3 13.72h4.396l4.944 4.413c6.111 5.455 6.173 5.505 6.779 5.505.952 0 1.602-1.15 1.14-2.016-.091-.172-1.786-1.758-3.765-3.523-1.98-1.765-3.598-3.236-3.598-3.268 0-.032 5.492 2.334 12.205 5.257l12.205 5.315-16.054.043c-8.83.023-23.286.023-32.125 0l-16.071-.043 2.947-1.26c3.139-1.343 3.758-1.764 3.758-2.553 0-.654-.667-1.314-1.327-1.314-.73 0-12.884 5.296-13.357 5.82C.013 26.5 0 26.63 0 29.774c0 3.202.007 3.268.403 3.73.395.462.448.474 2.427.529l2.023.056v41.658H3.02c-1.992 0-2.549.154-2.834.783-.12.264-.186 1.847-.186 4.45v4.038l.49.492.488.491h6.335c5.538 0 6.383-.034 6.718-.27.54-.38.72-.954.499-1.59-.326-.94-.697-.998-6.492-.998H2.845v-4.538H78.15v4.538H48.555c-21.228 0-29.745.053-30.127.187-1.046.366-1.264 1.652-.397 2.338.418.33.757.333 31.1.333 22.126 0 30.791-.052 31.085-.187a1.39 1.39 0 00.594-.596c.253-.559.253-8.129 0-8.688-.286-.629-.843-.783-2.835-.783h-1.833v-41.66l2.023-.055c1.98-.055 2.032-.067 2.427-.528.397-.464.404-.528.404-3.751v-3.28l-.46-.44c-.295-.28-6.34-2.993-16.777-7.527L47.443 11.42l-.048-1.959-.047-1.959h4.332l.433-.517c.498-.594.528-.829.192-1.482-.203-.395-1.108-.86-5.704-2.94C43.596 1.203 40.938.055 40.692.01c-.285-.052-.897.12-1.7.478zm3.577 3.299c.99.453 1.845.869 1.9.924.056.056-1.732.102-3.971.102-2.24 0-4.026-.047-3.97-.103.228-.229 3.575-1.716 3.896-1.73.19-.01 1.155.354 2.145.807zm2.077 5.438l.047 1.639h-8.379V9.294c0-.863.052-1.62.115-1.684.063-.063 1.926-.095 4.141-.07l4.028.045.048 1.639zm33.505 20.55v1.428H2.845v-2.858H78.15v1.43zm-52.045 17.9V61.29H7.531V34.06h18.575v13.615zm26.106 7.228v20.843H28.784V34.06h23.428v20.843zm21.253-7.228V61.29H54.889V34.06h18.576v13.615zM11.882 69.863v5.883H7.53v-5.77c0-3.175.05-5.822.111-5.884.061-.062 1.04-.112 2.176-.112h2.064v5.883zm7.028 0v5.883h-4.184V63.98h4.184v5.883zm7.196 0v5.883h-4.351V63.98h4.351v5.883zm33.134 0v5.883h-4.35V63.98h4.35v5.883zm7.029 0v5.883h-4.184V63.98h4.184v5.883zm7.156.042l.044 5.841h-4.355V63.97l2.134.047 2.133.047.044 5.841z" fill="#87121D" stroke="#fff" stroke-width=".8" mask="url(#a)"/></svg>