<svg width="153" height="150" fill="none" xmlns="http://www.w3.org/2000/svg"><path fill-rule="evenodd" clip-rule="evenodd" d="M131.769 74.592v71.086H96.442V150h39.657V74.592h-4.33zM77.821 30.805v-4.323H0v51.2h4.331V30.805h73.49zm53.948 43.787H77.821V30.804h53.948v43.788zm4.33 0v-48.11H77.821V0h74.725v74.592h-16.447zM123.425 60.7L96.24 38.951a2.161 2.161 0 00-3.03.337 2.15 2.15 0 00.33 3.025l27.184 21.749a2.156 2.156 0 001.587.462 2.167 2.167 0 001.449-.794 2.142 2.142 0 00.462-1.584 2.163 2.163 0 00-.797-1.446zm-5.586-11.36l-8.783-7.027a2.15 2.15 0 01-.331-3.025 2.162 2.162 0 013.031-.337l8.783 7.027a2.166 2.166 0 01.796 1.445 2.137 2.137 0 01-.461 1.584 2.158 2.158 0 01-3.035.333z" fill="#fff"/></svg>