<svg width="94" height="72" fill="none" xmlns="http://www.w3.org/2000/svg"><path fill-rule="evenodd" clip-rule="evenodd" d="M.45.458L0 .916v70.101l.38.492c.257.33.557.491.92.491.338 0 4.883-2.208 12.286-5.969l11.749-5.969h43.33l11.75 5.97C87.816 69.791 92.361 72 92.7 72c.363 0 .662-.16.918-.492.369-.475.381-.697.381-7.003v-6.512l-.45-.457c-.575-.584-1.279-.584-1.853 0l-.45.457v5.139c0 2.825-.043 5.137-.093 5.137-.051 0-4.637-2.308-10.19-5.13l-10.097-5.13V13.99l10.097-5.13c5.553-2.821 10.139-5.13 10.19-5.13.05 0 .092 10.455.092 23.232v23.231l.45.458c.575.583 1.279.583 1.853 0l.451-.458V.916l-.45-.458C93.3.206 92.887 0 92.63 0c-.256 0-5.671 2.644-12.032 5.876L69.032 11.75H54.11c-16.228 0-15.55-.043-15.814 1.023-.134.544.278 1.485.726 1.66.163.063 6.776.115 14.694.115h14.397v42.715H25.887V14.55h2.854c2.785 0 2.865-.01 3.304-.458.614-.623.6-1.448-.033-1.953-.448-.358-.723-.387-3.764-.387h-3.28L13.402 5.876C7.042 2.644 1.626 0 1.37 0 1.112 0 .7.206.451.458zM13.037 8.86l10.097 5.13v44.02l-10.097 5.13c-5.553 2.821-10.139 5.13-10.19 5.13-.05 0-.092-14.522-.092-32.27 0-17.748.042-32.27.092-32.27.051 0 4.637 2.309 10.19 5.13z" fill="#000"/></svg>